<svg id="fitbit" xmlns="http://www.w3.org/2000/svg" width="155.439" height="39.851" viewBox="0 0 155.439 39.851">
  <g id="blue">
    <path id="Shape" d="M19.46,39.851a2.983,2.983,0,1,1,0-5.966,3.012,3.012,0,0,1,3.034,2.983A3.049,3.049,0,0,1,19.46,39.851ZM27.865,31.9a3.519,3.519,0,1,1,3.58-3.518A3.6,3.6,0,0,1,27.865,31.9Zm-8.406-.382a3.136,3.136,0,1,1,0-6.272,3.167,3.167,0,0,1,3.192,3.135A3.131,3.131,0,0,1,19.459,31.513Zm-8.484-.535a2.678,2.678,0,1,1,0-5.354A2.672,2.672,0,0,1,13.7,28.3,2.737,2.737,0,0,1,10.975,30.978ZM36.5,24.017a4.054,4.054,0,1,1,0-8.108,4.2,4.2,0,0,1,4.125,4.054A4,4,0,0,1,36.5,24.017Zm-8.64-.306A3.672,3.672,0,1,1,31.6,20.041,3.708,3.708,0,0,1,27.865,23.712Zm-8.405-.537a3.213,3.213,0,1,1,0-6.425,3.372,3.372,0,0,1,2.426,1.038,2.943,2.943,0,0,1,.843,2.175A3.245,3.245,0,0,1,19.46,23.175Zm-8.484-.381a2.831,2.831,0,1,1,0-5.66,2.831,2.831,0,1,1,0,5.66Zm-8.485-.308a2.448,2.448,0,1,1,0-4.9,2.448,2.448,0,1,1,0,4.9Zm25.374-7.418a3.6,3.6,0,0,1-3.581-3.518,3.581,3.581,0,0,1,7.161,0A3.6,3.6,0,0,1,27.865,15.068Zm-8.406-.383a3.136,3.136,0,1,1,0-6.272A3.1,3.1,0,0,1,22.65,11.55,3.13,3.13,0,0,1,19.459,14.685Zm-8.484-.534a2.737,2.737,0,0,1-2.724-2.677A2.737,2.737,0,0,1,10.975,8.8,2.672,2.672,0,0,1,13.7,11.474,2.737,2.737,0,0,1,10.975,14.151ZM19.46,5.966a3.05,3.05,0,0,1-3.036-2.983,3.036,3.036,0,0,1,6.07,0A3.049,3.049,0,0,1,19.46,5.966Z"/>
  </g>
  <g id="wordmark" transform="translate(51.996 2.906)">
    <g id="Group" transform="translate(0 0.154)">
      <path id="Path" d="M.545,0A.58.58,0,0,0,0,.535V21.723a.58.58,0,0,0,.545.535H3.113a.58.58,0,0,0,.545-.535V.535A.58.58,0,0,0,3.113,0Z" transform="translate(19.069 11.701)"/>
      <path id="Path-2" data-name="Path" d="M2.491,0a2.448,2.448,0,1,0,0,4.9A2.438,2.438,0,0,0,4.981,2.448,2.487,2.487,0,0,0,2.491,0Z" transform="translate(18.524 2.752)"/>
      <path id="Path-3" data-name="Path" d="M.545,0A.58.58,0,0,0,0,.535V21.723a.58.58,0,0,0,.545.535H3.113a.58.58,0,0,0,.545-.535V.535A.58.58,0,0,0,3.113,0Z" transform="translate(74.333 11.701)"/>
      <path id="Path-4" data-name="Path" d="M2.491,0a2.448,2.448,0,1,0,0,4.9,2.448,2.448,0,1,0,0-4.9Z" transform="translate(73.632 2.752)"/>
      <path id="Shape-2" data-name="Shape" d="M1.622,1.912H1.3L.73,1.224H.975a.123.123,0,0,0,.043-.01l.6.7Zm-1.3,0H0V0H1.054a.586.586,0,0,1,.324.153.153.153,0,0,1,.162.152V.459A.578.578,0,0,1,1.53.584a.876.876,0,0,1,.012.181c0,.15,0,.306-.162.306a.6.6,0,0,0-.269.1.818.818,0,0,1-.093.047L.893,1.071a.712.712,0,0,0,.162.02c.223,0,.324-.13.324-.25A.488.488,0,0,0,1.53.584.139.139,0,0,0,1.38.459C1.3.306,1.134.306.975.306H.407v.919H.324v.686Z" transform="translate(100.874 31.054)"/>
      <path id="Shape-3" data-name="Shape" d="M1.79,3.518A1.845,1.845,0,0,1,0,1.759,1.845,1.845,0,0,1,1.79,0,1.755,1.755,0,0,1,3.579,1.759,1.845,1.845,0,0,1,1.79,3.518Zm0-3.364A1.585,1.585,0,0,0,.156,1.761,1.585,1.585,0,0,0,1.79,3.367,1.622,1.622,0,0,0,3.425,1.761,1.585,1.585,0,0,0,1.79.155Z" transform="translate(99.863 30.289)"/>
      <path id="Path-5" data-name="Path" d="M12.454,12.238A.58.58,0,0,0,13,11.7V9.179a.58.58,0,0,0-.545-.535H6.927V.535A.58.58,0,0,0,6.382,0H3.814a.58.58,0,0,0-.545.535V8.643H.545A.58.58,0,0,0,0,9.179V11.7a.58.58,0,0,0,.545.535H3.269V24.476a5.914,5.914,0,0,0,6.3,6.2H12.3a.58.58,0,0,0,.545-.535V27.612a.58.58,0,0,0-.545-.535H9.963a2.917,2.917,0,0,1-3.036-3.136V12.162h5.526v.076Z" transform="translate(28.566 2.905)"/>
      <path id="Path-6" data-name="Path" d="M12.454,12.238A.58.58,0,0,0,13,11.7V9.179a.58.58,0,0,0-.545-.535H6.927V.535A.58.58,0,0,0,6.382,0H3.814a.58.58,0,0,0-.545.535V8.643H.545A.58.58,0,0,0,0,9.179V11.7a.58.58,0,0,0,.545.535H3.269V24.476a5.914,5.914,0,0,0,6.3,6.2H12.3a.58.58,0,0,0,.545-.535V27.612a.58.58,0,0,0-.545-.535H9.807a2.917,2.917,0,0,1-3.036-3.136V12.162h5.6l.078.076Z" transform="translate(83.205 2.905)"/>
      <path id="Path-7" data-name="Path" d="M3.269,15.145V33.2a.58.58,0,0,0,.545.535H6.382a.58.58,0,0,0,.545-.535V15.145H13a.58.58,0,0,0,.545-.535V12.085A.58.58,0,0,0,13,11.55H6.927V6.807A3.069,3.069,0,0,1,9.963,3.595H13a.58.58,0,0,0,.545-.535V.535A.58.58,0,0,0,13,0h-2.88A6.85,6.85,0,0,0,3.269,6.731V11.55H.545A.58.58,0,0,0,0,12.085v2.524a.58.58,0,0,0,.545.535Z"/>
    </g>
    <path id="Shape-4" data-name="Shape" d="M11.131,34.65a11.17,11.17,0,0,1-7.637-2.83C1.208,29.71,0,26.589,0,22.794V.535A.577.577,0,0,1,.545,0H3.114a.578.578,0,0,1,.545.535V14a11.114,11.114,0,0,1,7.55-2.983,10.939,10.939,0,0,1,7.939,3.365,12.129,12.129,0,0,1,3.113,8.415,11.843,11.843,0,0,1-3.522,9A11.136,11.136,0,0,1,11.131,34.65Zm0-20.04c-4.516,0-7.55,3.32-7.55,8.261,0,4.031,1.983,8.337,7.55,8.337,6.856,0,7.512-6.382,7.55-8.337C18.681,17.93,15.646,14.61,11.131,14.61Z" transform="translate(47.012)"/>
  </g>
</svg>
