<svg xmlns="http://www.w3.org/2000/svg" width="38.408" height="43.7" viewBox="0 0 38.408 43.7">
  <path id="Path_160" data-name="Path 160" d="M50.2,0A19.226,19.226,0,0,0,31,19.2V29.617a3.845,3.845,0,0,0,3.841,3.841h1.5a3.841,3.841,0,0,0,7.461-1.28V21.765a3.84,3.84,0,0,0-7.461-1.28h-1.5a3.823,3.823,0,0,0-1.28.22V19.2a16.644,16.644,0,1,1,33.287,0v1.5a3.823,3.823,0,0,0-1.28-.22h-1.5a3.841,3.841,0,0,0-7.461,1.28V32.178a3.84,3.84,0,0,0,4.956,3.675,3.847,3.847,0,0,1-3.675,2.726H53.825a3.841,3.841,0,1,0,0,2.561h4.061a6.409,6.409,0,0,0,6.4-6.4v-1.28h1.28a3.845,3.845,0,0,0,3.841-3.841V19.2A19.226,19.226,0,0,0,50.2,0ZM38.682,21.765a1.28,1.28,0,1,1,2.561,0V32.178a1.28,1.28,0,1,1-2.561,0Zm-3.841,1.28h1.28V30.9h-1.28a1.282,1.282,0,0,1-1.28-1.28V24.325A1.282,1.282,0,0,1,34.841,23.045ZM50.2,41.139a1.28,1.28,0,1,1,1.28-1.28A1.282,1.282,0,0,1,50.2,41.139Zm11.522-8.962a1.28,1.28,0,1,1-2.561,0V21.765a1.28,1.28,0,1,1,2.561,0Zm5.121-2.561a1.282,1.282,0,0,1-1.28,1.28h-1.28V23.045h1.28a1.282,1.282,0,0,1,1.28,1.28Z" transform="translate(-31)" fill="#0bfac8"/>
</svg>
