<svg xmlns="http://www.w3.org/2000/svg" width="42" height="42" viewBox="0 0 42 42">
  <g id="Group_7593" data-name="Group 7593" transform="translate(-0.5 -0.096)">
    <circle id="Ellipse_1748" data-name="Ellipse 1748" cx="21" cy="21" r="21" transform="translate(0.5 0.096)" fill="#0bfac8"/>
    <path id="Path_23043" data-name="Path 23043" d="M4.728-6.4A5.4,5.4,0,0,1,4.3-4.159,4.829,4.829,0,0,1,3.253-2.622q-.61.579-1.221,1.1A4.859,4.859,0,0,0,.989-.274,3.239,3.239,0,0,0,.556,1.4v.525H-3.492V1.109A5.2,5.2,0,0,1-3.206-.66,3.975,3.975,0,0,1-2.5-1.942q.425-.487.927-.966t.927-.865A3.291,3.291,0,0,0,.07-4.716,2.6,2.6,0,0,0,.355-5.921,1.916,1.916,0,0,0-.093-7.335,1.942,1.942,0,0,0-1.5-7.775a1.868,1.868,0,0,0-1.46.51A2.65,2.65,0,0,0-3.415-5.5v.788H-7.787V-6A4.437,4.437,0,0,1-6.234-9.737,7.677,7.677,0,0,1-1.5-10.942Q4.728-10.942,4.728-6.4ZM-3.708,3.736H.742V8.294h-4.45Z" transform="translate(21.851 23.248)" fill="#0d0d0d"/>
  </g>
</svg>
