<svg xmlns="http://www.w3.org/2000/svg" width="56.555" height="60.698" viewBox="0 0 56.555 60.698">
  <g id="Group_1403" data-name="Group 1403" transform="translate(-251.169 417.297)">
    <g id="Group_1403-2" data-name="Group 1403">
      <path id="Path_439" data-name="Path 439" d="M305.447-381.893a1.622,1.622,0,0,1-.352-.039,2.182,2.182,0,0,1-.355-.1,2.008,2.008,0,0,1-.318-.172,1.514,1.514,0,0,1-.267-.222,1.871,1.871,0,0,1-.231-.285,2.1,2.1,0,0,1-.179-.325,2.151,2.151,0,0,1-.138-.7,1.845,1.845,0,0,1,1.844-1.832,1.871,1.871,0,0,1,.358.035,2.072,2.072,0,0,1,.341.109,1.861,1.861,0,0,1,.831.678,2.092,2.092,0,0,1,.163.313,2.129,2.129,0,0,1,.108.353,2.141,2.141,0,0,1,.031.358,1.521,1.521,0,0,1-.038.34,1.71,1.71,0,0,1-.1.359,2.268,2.268,0,0,1-.169.324,1.911,1.911,0,0,1-.228.27,1.548,1.548,0,0,1-.271.227,1.912,1.912,0,0,1-.329.177,1.983,1.983,0,0,1-.338.1A1.653,1.653,0,0,1,305.447-381.893Z" fill="#0be6b8"/>
    </g>
    <g id="Group_1404" data-name="Group 1404">
      <path id="Path_440" data-name="Path 440" d="M298.537-368.785a1.856,1.856,0,0,1-1.28-.517,1.823,1.823,0,0,1-.557-1.291,1.828,1.828,0,0,1,.519-1.31,1.831,1.831,0,0,1,1.325-.56,1.836,1.836,0,0,1,1.278.514,1.824,1.824,0,0,1,.559,1.291,1.83,1.83,0,0,1-.519,1.31,1.844,1.844,0,0,1-1.321.563Zm4.39-6.061a1.871,1.871,0,0,1-.849-.2v0a1.841,1.841,0,0,1-.771-2.483,1.837,1.837,0,0,1,1.63-.987,1.821,1.821,0,0,1,.854.211,1.834,1.834,0,0,1,.774,2.472l-.088.171a1.859,1.859,0,0,1-1.542.823Z" fill="#0be6b8"/>
    </g>
    <g id="Group_1405" data-name="Group 1405">
      <path id="Path_441" data-name="Path 441" d="M292.505-364.2a1.845,1.845,0,0,1-1.719-1.838,1.833,1.833,0,0,1,.535-1.3,1.853,1.853,0,0,1,1.3-.543,1.856,1.856,0,0,1,.355.035,2.1,2.1,0,0,1,.35.108,1.976,1.976,0,0,1,.316.165,1.939,1.939,0,0,1,.275.23,1.844,1.844,0,0,1-.007,2.605,1.833,1.833,0,0,1-1.29.535Z" fill="#0be6b8"/>
    </g>
    <g id="Group_1406" data-name="Group 1406">
      <path id="Path_442" data-name="Path 442" d="M280.216-356.6a.286.286,0,0,1-.286-.285v-3.842h-.4a28.386,28.386,0,0,1-28.291-26.339,28.317,28.317,0,0,1,26.273-30.162c.671-.047,1.35-.071,2.019-.071a28.482,28.482,0,0,1,28.192,25.934l0,.135a1.834,1.834,0,0,1-1.828,1.814h0a1.866,1.866,0,0,1-1.85-1.712,24.463,24.463,0,0,0-24.5-22.484,24.632,24.632,0,0,0-24.608,24.592,24.442,24.442,0,0,0,7.2,17.4,24.434,24.434,0,0,0,17.392,7.21h.4v-3.842a.283.283,0,0,1,.048-.159.286.286,0,0,1,.238-.126.284.284,0,0,1,.159.049l8.4,5.668a.3.3,0,0,1,.076.075.284.284,0,0,1,.044.216.28.28,0,0,1-.12.182l-8.4,5.7A.291.291,0,0,1,280.216-356.6Z"/>
    </g>
    <g id="Group_1407" data-name="Group 1407">
      <path id="Path_443" data-name="Path 443" d="M265.939-380.306a9.865,9.865,0,0,1-3.243-.548.873.873,0,0,1-.529-1.043l.066-.244a.889.889,0,0,1,.842-.645.853.853,0,0,1,.278.046,7.744,7.744,0,0,0,2.393.431h0a3.758,3.758,0,0,0,2.337-.67,2.195,2.195,0,0,0,.851-1.761c0-1.778-1.739-2.573-3.461-2.573H265.3a.877.877,0,0,1-.862-.865.875.875,0,0,1,.866-.881h.1c1.439-.027,3.11-.608,3.11-2.152,0-.961-.695-1.989-2.644-1.989a6.55,6.55,0,0,0-2.083.383.938.938,0,0,1-.269.043.872.872,0,0,1-.838-.638l-.038-.132a.876.876,0,0,1,.535-1.054,10.285,10.285,0,0,1,3.487-.607c2.779,0,4.646,1.36,4.646,3.385a3.229,3.229,0,0,1-2.474,3.138l-.307.074v.667l.35.092a3.386,3.386,0,0,1,2.944,3.3c0,2.536-2.336,4.244-5.813,4.244Z"/>
    </g>
    <g id="Group_1408" data-name="Group 1408">
      <path id="Path_444" data-name="Path 444" d="M297.436-394.4a1.747,1.747,0,0,1-1.745-1.746,1.747,1.747,0,0,1,1.745-1.745,1.748,1.748,0,0,1,1.745,1.745A1.748,1.748,0,0,1,297.436-394.4Zm0-2.549a.8.8,0,0,0-.8.8.808.808,0,0,0,.8.8.8.8,0,0,0,.8-.8A.8.8,0,0,0,297.436-396.948Z"/>
    </g>
    <g id="Group_1409" data-name="Group 1409">
      <path id="Path_445" data-name="Path 445" d="M279.182-380.306c-4.162,0-5.64-3.22-5.64-6.234-.017-.247-.021-.468-.018-.689a8.068,8.068,0,0,1,8.03-7.906l.25,0a.916.916,0,0,1,.914.915v.12a.921.921,0,0,1-.846.914l-.165.012c-3.913.32-5.011,2.614-5.316,3.954l-.113.489h.665l.187-.114a3.859,3.859,0,0,1,2.714-1.107c.069,0,.336.005.336.005.105,0,.21,0,.314.012a4.182,4.182,0,0,1,2.876,1.452,4.18,4.18,0,0,1,1.006,3.059l0,.242a5.015,5.015,0,0,1-5.033,4.881Zm-.283-7.9a2.71,2.71,0,0,0-2.453,1.569,2.52,2.52,0,0,0-.175,1.081c.089,2.083,1.209,3.434,2.852,3.434,1.446,0,2.456-1.27,2.456-3.087a2.667,2.667,0,0,0-1.549-2.748A2.671,2.671,0,0,0,278.9-388.206Z"/>
    </g>
    <g id="Group_1410" data-name="Group 1410">
      <path id="Path_446" data-name="Path 446" d="M291.323-380.306c-3.279,0-5.252-2.777-5.277-7.427,0-4.677,2.016-7.471,5.392-7.471,4.742,0,5.254,5.161,5.254,7.379C296.692-383.046,294.735-380.306,291.323-380.306Zm.074-12.119a2.153,2.153,0,0,0-1.561.65c-.759.765-1.135,2.125-1.118,4.043-.019,1.9.347,3.241,1.089,3.99a2.185,2.185,0,0,0,1.611.659c1.2,0,2.628-.814,2.635-4.69C294.053-391.618,292.608-392.425,291.4-392.425Z"/>
    </g>
  </g>
</svg>
