<svg xmlns="http://www.w3.org/2000/svg" width="90.903" height="63.5" viewBox="0 0 90.903 63.5">
  <g id="Group_1415" data-name="Group 1415" transform="translate(-558 -1803.75)">
    <g id="Group_1371" data-name="Group 1371" transform="translate(590 1822.199)">
      <path id="Path_411" data-name="Path 411" d="M-112.034,78.959a1.839,1.839,0,0,1-.861-.215l-6.566-3.451-6.565,3.452a1.839,1.839,0,0,1-1.946-.141,1.833,1.833,0,0,1-.735-1.807l1.254-7.311-5.312-5.178a1.835,1.835,0,0,1-.468-1.894,1.837,1.837,0,0,1,1.492-1.257l7.339-1.067,3.283-6.651a1.836,1.836,0,0,1,1.656-1.03,1.838,1.838,0,0,1,1.658,1.03l3.282,6.651,7.34,1.067a1.837,1.837,0,0,1,1.492,1.257,1.835,1.835,0,0,1-.468,1.894l-5.312,5.178,1.254,7.311a1.835,1.835,0,0,1-.735,1.807A1.844,1.844,0,0,1-112.034,78.959ZM-129.955,63.48l4.551,4.437a1.847,1.847,0,0,1,.532,1.633l-1.075,6.266,5.626-2.957a1.85,1.85,0,0,1,1.721,0l5.624,2.957-1.075-6.264a1.85,1.85,0,0,1,.532-1.636l4.55-4.436-6.29-.914a1.851,1.851,0,0,1-1.392-1.012l-2.812-5.7-2.812,5.7a1.849,1.849,0,0,1-1.392,1.011Zm2.768,6.266,0,0Zm19.639-6.06h0Z" transform="translate(133.324 -52.41)"/>
    </g>
    <g id="Group_1372" data-name="Group 1372" transform="translate(643.292 1833.182)">
      <path id="Path_412" data-name="Path 412" d="M-97.816,68.2h-2.652a1.48,1.48,0,0,1-1.479-1.479,1.479,1.479,0,0,1,1.479-1.479h2.652a1.479,1.479,0,0,1,1.479,1.479A1.48,1.48,0,0,1-97.816,68.2Z" transform="translate(101.948 -65.238)" fill="#0be6b8"/>
    </g>
    <g id="Group_1373" data-name="Group 1373" transform="translate(641.984 1823.92)">
      <path id="Path_413" data-name="Path 413" d="M-101.572,65.092a1.475,1.475,0,0,1-1.046-.433,1.478,1.478,0,0,1,0-2.092l3.031-3.03a1.476,1.476,0,0,1,2.091,0,1.476,1.476,0,0,1,0,2.091l-3.031,3.031A1.474,1.474,0,0,1-101.572,65.092Z" transform="translate(103.053 -59.102)" fill="#0be6b8"/>
    </g>
    <g id="Group_1376" data-name="Group 1376" transform="translate(641.984 1839.755)">
      <path id="Path_416" data-name="Path 416" d="M-98.542,75.092a1.475,1.475,0,0,1-1.046-.433l-3.031-3.031a1.476,1.476,0,0,1,0-2.091,1.477,1.477,0,0,1,2.091,0l3.031,3.03a1.478,1.478,0,0,1,0,2.092A1.474,1.474,0,0,1-98.542,75.092Z" transform="translate(103.053 -69.102)" fill="#0be6b8"/>
    </g>
    <g id="Group_1402" data-name="Group 1402" transform="translate(-20 16)">
      <g id="Group_1374" data-name="Group 1374" transform="translate(578 1817.182)">
        <path id="Path_414" data-name="Path 414" d="M-138.307,68.2h-2.121a1.479,1.479,0,0,1-1.479-1.479,1.478,1.478,0,0,1,1.479-1.479h2.121a1.478,1.478,0,0,1,1.479,1.479A1.479,1.479,0,0,1-138.307,68.2Z" transform="translate(141.907 -65.238)" fill="#0be6b8"/>
      </g>
      <g id="Group_1375" data-name="Group 1375" transform="translate(578.742 1807.92)">
        <path id="Path_415" data-name="Path 415" d="M-137.374,64.487a1.475,1.475,0,0,1-1.046-.433l-2.425-2.426a1.476,1.476,0,0,1,0-2.091,1.476,1.476,0,0,1,2.091,0l2.426,2.426a1.479,1.479,0,0,1,0,2.091A1.477,1.477,0,0,1-137.374,64.487Z" transform="translate(141.28 -59.102)" fill="#0be6b8"/>
      </g>
      <g id="Group_1377" data-name="Group 1377" transform="translate(578.742 1824.361)">
        <path id="Path_417" data-name="Path 417" d="M-139.8,75a1.474,1.474,0,0,1-1.045-.433,1.478,1.478,0,0,1,0-2.092l2.425-2.425a1.48,1.48,0,0,1,2.092,0,1.48,1.48,0,0,1,0,2.092l-2.426,2.425A1.475,1.475,0,0,1-139.8,75Z" transform="translate(141.28 -69.614)" fill="#0be6b8"/>
      </g>
    </g>
    <g id="Group_1401" data-name="Group 1401" transform="translate(261.808 1375)">
      <circle id="Ellipse_1749" data-name="Ellipse 1749" cx="20.717" cy="20.717" r="20.717" transform="translate(313.433 466.772) rotate(-57.301)" fill="none" stroke="#030303" stroke-linecap="round" stroke-linejoin="round" stroke-width="2.5"/>
      <path id="Path_438" data-name="Path 438" d="M372.25,453.45l-4.585-4.664-.517-6.463-5.759-2.553-2.928-5.509-6.54-.056-4.936-4.2-5.878,2.266-5.966-1.824-4.664,4.584-6.462.517-2.555,5.76-5.508,2.927-.057,6.54-4.2,4.936,2.266,5.878-1.825,5.966,4.585,4.664.517,6.462,5.759,2.555,2.928,5.509,6.54.056L337.4,491l5.878-2.267,5.966,1.825,4.664-4.584,6.462-.518,2.555-5.759,5.508-2.927.057-6.541,4.2-4.936-2.266-5.878,1.825-5.965Z" transform="translate(0)" fill="none" stroke="#030303" stroke-linecap="round" stroke-linejoin="round" stroke-width="2.5"/>
    </g>
  </g>
</svg>
