<svg xmlns="http://www.w3.org/2000/svg" width="65.688" height="61.745" viewBox="0 0 65.688 61.745">
  <g id="Group_1478" data-name="Group 1478" transform="translate(-813 -1804.255)">
    <g id="Group_1380" data-name="Group 1380" transform="translate(859.121 1808.698)">
      <path id="Path_419" data-name="Path 419" d="M247.988,73.964a1.4,1.4,0,0,1-1.4-1.4V55.8H242.4a1.4,1.4,0,1,1,0-2.8h4.193a2.8,2.8,0,0,1,2.8,2.8V72.567A1.4,1.4,0,0,1,247.988,73.964Z" transform="translate(-241 -53)"/>
    </g>
    <g id="Group_1381" data-name="Group 1381" transform="translate(813 1808.698)">
      <path id="Path_420" data-name="Path 420" d="M235.952,96.326H210.8a2.8,2.8,0,0,1-2.8-2.8V55.8a2.8,2.8,0,0,1,2.8-2.8h44.193a1.4,1.4,0,0,1,0,2.8H210.8V93.531h25.157a1.4,1.4,0,1,1,0,2.8Z" transform="translate(-208 -53)"/>
    </g>
    <g id="Group_1382" data-name="Group 1382" transform="translate(845.145 1832.457)">
      <path id="Path_421" data-name="Path 421" d="M247.771,103.543a16.771,16.771,0,1,1,16.771-16.771A16.79,16.79,0,0,1,247.771,103.543Zm0-30.748a13.976,13.976,0,1,0,13.976,13.976A13.992,13.992,0,0,0,247.771,72.8Z" transform="translate(-231 -70)"/>
    </g>
    <g id="Group_1383" data-name="Group 1383" transform="translate(813 1819.879)">
      <path id="Path_422" data-name="Path 422" d="M261.109,63.8H209.4a1.4,1.4,0,1,1,0-2.8h51.712a1.4,1.4,0,1,1,0,2.8Z" transform="translate(-208 -61)"/>
    </g>
    <g id="Group_1384" data-name="Group 1384" transform="translate(854.928 1843.844)">
      <path id="Path_423" data-name="Path 423" d="M244.987,87.181a1.386,1.386,0,0,1-.837-.28l-5.59-4.193a1.4,1.4,0,1,1,1.677-2.236l4.528,3.4L250.9,76.5a1.4,1.4,0,0,1,2.15,1.789l-6.988,8.386A1.4,1.4,0,0,1,244.987,87.181Z" transform="translate(-238 -76)" fill="#0be6b8"/>
    </g>
    <g id="Group_1385" data-name="Group 1385" transform="translate(853.531 1804.505)">
      <path id="Path_424" data-name="Path 424" d="M238.4,61.181a1.4,1.4,0,0,1-1.4-1.4V51.4a1.4,1.4,0,0,1,2.8,0v8.386A1.4,1.4,0,0,1,238.4,61.181Z" transform="translate(-237 -50)" stroke="#000" stroke-width="0.5"/>
    </g>
    <g id="Group_1386" data-name="Group 1386" transform="translate(829.073 1808.698)">
      <path id="Path_425" data-name="Path 425" d="M240.464,55.8H220.9a1.4,1.4,0,0,1,0-2.8h19.567a1.4,1.4,0,0,1,0,2.8Z" transform="translate(-219.5 -53)"/>
    </g>
    <g id="Group_1387" data-name="Group 1387" transform="translate(824.181 1804.505)">
      <path id="Path_426" data-name="Path 426" d="M217.4,61.181a1.4,1.4,0,0,1-1.4-1.4V51.4a1.4,1.4,0,1,1,2.8,0v8.386A1.4,1.4,0,0,1,217.4,61.181Z" transform="translate(-216 -50)" stroke="#000" stroke-width="0.5"/>
    </g>
    <g id="Group_1388" data-name="Group 1388" transform="translate(821.386 1826.867)">
      <path id="Path_427" data-name="Path 427" d="M219.59,68.8H215.4a1.4,1.4,0,1,1,0-2.8h4.193a1.4,1.4,0,0,1,0,2.8Z" transform="translate(-214 -66)"/>
    </g>
    <g id="Group_1389" data-name="Group 1389" transform="translate(831.169 1826.867)">
      <path id="Path_428" data-name="Path 428" d="M226.59,68.8H222.4a1.4,1.4,0,1,1,0-2.8h4.193a1.4,1.4,0,0,1,0,2.8Z" transform="translate(-221 -66)"/>
    </g>
    <g id="Group_1390" data-name="Group 1390" transform="translate(840.952 1826.867)">
      <path id="Path_429" data-name="Path 429" d="M233.59,68.8H229.4a1.4,1.4,0,1,1,0-2.8h4.193a1.4,1.4,0,1,1,0,2.8Z" transform="translate(-228 -66)"/>
    </g>
    <g id="Group_1391" data-name="Group 1391" transform="translate(821.386 1832.457)">
      <path id="Path_430" data-name="Path 430" d="M219.59,72.8H215.4a1.4,1.4,0,1,1,0-2.8h4.193a1.4,1.4,0,0,1,0,2.8Z" transform="translate(-214 -70)"/>
    </g>
    <g id="Group_1392" data-name="Group 1392" transform="translate(831.169 1832.457)">
      <path id="Path_431" data-name="Path 431" d="M226.59,72.8H222.4a1.4,1.4,0,1,1,0-2.8h4.193a1.4,1.4,0,0,1,0,2.8Z" transform="translate(-221 -70)"/>
    </g>
    <g id="Group_1393" data-name="Group 1393" transform="translate(840.952 1832.457)">
      <path id="Path_432" data-name="Path 432" d="M233.59,72.8H229.4a1.4,1.4,0,1,1,0-2.8h4.193a1.4,1.4,0,1,1,0,2.8Z" transform="translate(-228 -70)"/>
    </g>
    <g id="Group_1394" data-name="Group 1394" transform="translate(821.386 1838.048)">
      <path id="Path_433" data-name="Path 433" d="M219.59,76.8H215.4a1.4,1.4,0,0,1,0-2.8h4.193a1.4,1.4,0,0,1,0,2.8Z" transform="translate(-214 -74)"/>
    </g>
    <g id="Group_1395" data-name="Group 1395" transform="translate(831.169 1838.048)">
      <path id="Path_434" data-name="Path 434" d="M226.59,76.8H222.4a1.4,1.4,0,1,1,0-2.8h4.193a1.4,1.4,0,0,1,0,2.8Z" transform="translate(-221 -74)" stroke="#000" stroke-width="0.5"/>
    </g>
    <g id="Group_1396" data-name="Group 1396" transform="translate(821.386 1843.638)">
      <path id="Path_435" data-name="Path 435" d="M219.59,80.8H215.4a1.4,1.4,0,0,1,0-2.8h4.193a1.4,1.4,0,0,1,0,2.8Z" transform="translate(-214 -78)"/>
    </g>
    <g id="Group_1397" data-name="Group 1397" transform="translate(831.169 1843.638)">
      <path id="Path_436" data-name="Path 436" d="M226.59,80.8H222.4a1.4,1.4,0,1,1,0-2.8h4.193a1.4,1.4,0,0,1,0,2.8Z" transform="translate(-221 -78)"/>
    </g>
  </g>
</svg>
