<svg xmlns="http://www.w3.org/2000/svg" width="57.433" height="56.801" viewBox="0 0 57.433 56.801">
  <g id="Group_1818" data-name="Group 1818" transform="translate(-566 -1568.199)">
    <g id="Group_1378" data-name="Group 1378" transform="translate(568 1564)">
      <g id="Group_1371" data-name="Group 1371" transform="translate(12 4.199)">
        <path id="Path_411" data-name="Path 411" d="M-112.034,78.959a1.839,1.839,0,0,1-.861-.215l-6.566-3.451-6.565,3.452a1.839,1.839,0,0,1-1.946-.141,1.833,1.833,0,0,1-.735-1.807l1.254-7.311-5.312-5.178a1.835,1.835,0,0,1-.468-1.894,1.837,1.837,0,0,1,1.492-1.257l7.339-1.067,3.283-6.651a1.836,1.836,0,0,1,1.656-1.03,1.838,1.838,0,0,1,1.658,1.03l3.282,6.651,7.34,1.067a1.837,1.837,0,0,1,1.492,1.257,1.835,1.835,0,0,1-.468,1.894l-5.312,5.178,1.254,7.311a1.835,1.835,0,0,1-.735,1.807A1.844,1.844,0,0,1-112.034,78.959ZM-129.955,63.48l4.551,4.437a1.847,1.847,0,0,1,.532,1.633l-1.075,6.266,5.626-2.957a1.85,1.85,0,0,1,1.721,0l5.624,2.957-1.075-6.264a1.85,1.85,0,0,1,.532-1.636l4.55-4.436-6.29-.914a1.851,1.851,0,0,1-1.392-1.012l-2.812-5.7-2.812,5.7a1.849,1.849,0,0,1-1.392,1.011Zm2.768,6.266,0,0Zm19.639-6.06h0Z" transform="translate(133.324 -52.41)"/>
      </g>
      <g id="Group_1372" data-name="Group 1372" transform="translate(47.292 15.182)">
        <path id="Path_412" data-name="Path 412" d="M-97.816,68.2h-2.652a1.48,1.48,0,0,1-1.479-1.479,1.479,1.479,0,0,1,1.479-1.479h2.652a1.479,1.479,0,0,1,1.479,1.479A1.48,1.48,0,0,1-97.816,68.2Z" transform="translate(101.948 -65.238)" fill="#0be6b8"/>
      </g>
      <g id="Group_1373" data-name="Group 1373" transform="translate(45.984 5.92)">
        <path id="Path_413" data-name="Path 413" d="M-101.572,65.092a1.475,1.475,0,0,1-1.046-.433,1.478,1.478,0,0,1,0-2.092l3.031-3.03a1.476,1.476,0,0,1,2.091,0,1.476,1.476,0,0,1,0,2.091l-3.031,3.031A1.474,1.474,0,0,1-101.572,65.092Z" transform="translate(103.053 -59.102)" fill="#0be6b8"/>
      </g>
      <g id="Group_1374" data-name="Group 1374" transform="translate(0 15.182)">
        <path id="Path_414" data-name="Path 414" d="M-138.307,68.2h-2.121a1.479,1.479,0,0,1-1.479-1.479,1.478,1.478,0,0,1,1.479-1.479h2.121a1.478,1.478,0,0,1,1.479,1.479A1.479,1.479,0,0,1-138.307,68.2Z" transform="translate(141.907 -65.238)" fill="#0be6b8"/>
      </g>
      <g id="Group_1375" data-name="Group 1375" transform="translate(0.742 5.92)">
        <path id="Path_415" data-name="Path 415" d="M-137.374,64.487a1.475,1.475,0,0,1-1.046-.433l-2.425-2.426a1.476,1.476,0,0,1,0-2.091,1.476,1.476,0,0,1,2.091,0l2.426,2.426a1.479,1.479,0,0,1,0,2.091A1.477,1.477,0,0,1-137.374,64.487Z" transform="translate(141.28 -59.102)" fill="#0be6b8"/>
      </g>
      <g id="Group_1376" data-name="Group 1376" transform="translate(45.984 21.755)">
        <path id="Path_416" data-name="Path 416" d="M-98.542,75.092a1.475,1.475,0,0,1-1.046-.433l-3.031-3.031a1.476,1.476,0,0,1,0-2.091,1.477,1.477,0,0,1,2.091,0l3.031,3.03a1.478,1.478,0,0,1,0,2.092A1.474,1.474,0,0,1-98.542,75.092Z" transform="translate(103.053 -69.102)" fill="#0be6b8"/>
      </g>
      <g id="Group_1377" data-name="Group 1377" transform="translate(0.742 22.361)">
        <path id="Path_417" data-name="Path 417" d="M-139.8,75a1.474,1.474,0,0,1-1.045-.433,1.478,1.478,0,0,1,0-2.092l2.425-2.425a1.48,1.48,0,0,1,2.092,0,1.48,1.48,0,0,1,0,2.092l-2.426,2.425A1.475,1.475,0,0,1-139.8,75Z" transform="translate(141.28 -69.614)" fill="#0be6b8"/>
      </g>
    </g>
    <path id="Path_418" data-name="Path 418" d="M-95.185,101.641h-15.107V92.874a1.124,1.124,0,0,0-1.124-1.124h-22.723a1.124,1.124,0,0,0-1.124,1.124v11.719H-150.37a1.124,1.124,0,0,0-1.124,1.124V115.95a1.124,1.124,0,0,0,1.124,1.124h55.185a1.124,1.124,0,0,0,1.124-1.124V102.765A1.124,1.124,0,0,0-95.185,101.641Zm-54.061,5.2h13.983v7.985h-13.983Zm16.231-1.124V94h20.475v20.828h-20.475Zm36.706,9.109h-13.983V103.889h13.983Z" transform="translate(717.494 1507.926)"/>
  </g>
</svg>
