<svg xmlns="http://www.w3.org/2000/svg" xmlns:xlink="http://www.w3.org/1999/xlink" width="85.688" height="33.396" viewBox="0 0 85.688 33.396">
  <defs>
    <linearGradient id="linear-gradient" y1="0.5" x2="1" y2="0.5" gradientUnits="objectBoundingBox">
      <stop offset="0" stop-color="#57d7e6"/>
      <stop offset="1" stop-color="#00ffc4"/>
    </linearGradient>
  </defs>
  <g id="Group_1360" data-name="Group 1360" transform="translate(-1634.172 -642.245)">
    <g id="Group_1359" data-name="Group 1359">
      <path id="Path_399" data-name="Path 399" d="M1690.493,675.641c-.282-.122-.591-.034-.9-.136.21-.318.42-.641.636-.96q3.774-5.613,7.551-11.225c.92-1.368,1.836-2.739,2.764-4.1a.343.343,0,0,0,0-.461q-5.46-8.1-10.909-16.216a.153.153,0,0,1-.04-.141,11.566,11.566,0,0,1,1.661-.146,12.411,12.411,0,0,1,2.766.236,6.1,6.1,0,0,1,3.447,2.1,47.316,47.316,0,0,1,3.313,4.4q1.576,2.275,3.151,4.551c.493.711,1.083.714,1.58,0,1.456-2.092,2.9-4.193,4.363-6.281a27.454,27.454,0,0,1,2.585-3.172,5.656,5.656,0,0,1,3.1-1.624,13.227,13.227,0,0,1,4.127-.1c.292.033.147.154.073.265q-2.505,3.728-5.012,7.454-2.908,4.326-5.822,8.651a.378.378,0,0,0-.008.507q3.02,4.461,6.02,8.935l4.728,7.033c.064.1.125.191.2.306a7.3,7.3,0,0,1-1.177.086c-.09,0-.195-.051-.273.043h-.8c-.023-.071-.084-.051-.134-.053a10.985,10.985,0,0,1-1.514-.165,6.27,6.27,0,0,1-3.655-1.78,24.852,24.852,0,0,1-1.879-2.194c-1.382-1.85-2.65-3.781-3.977-5.67-.338-.482-.664-.971-1.012-1.446a.8.8,0,0,0-1.4-.037c-.035.041-.068.083-.1.127q-1.6,2.307-3.2,4.614a40.03,40.03,0,0,1-2.956,4,6.557,6.557,0,0,1-2.251,1.813,9.922,9.922,0,0,1-2.816.691,4.076,4.076,0,0,0-.935.1Z"/>
      <path id="Path_400" data-name="Path 400" d="M1646.154,664.726c.353-1.348.7-2.654,1.039-3.96,1-3.815,2-7.633,3.011-11.445a13.317,13.317,0,0,1,1.14-2.789,4.9,4.9,0,0,1,3.274-2.529,6.924,6.924,0,0,1,5.058.551,5,5,0,0,1,2.081,2.37,17.64,17.64,0,0,1,1.3,3.724q1.657,6.375,3.336,12.746a12.7,12.7,0,0,0,.382,1.266c.079-.294.161-.588.237-.882q2.034-7.881,4.067-15.76a13.463,13.463,0,0,1,.749-2.392,5.516,5.516,0,0,1,3.69-3.044,9.147,9.147,0,0,1,2.992-.32c.205.01.247.065.194.266q-2.779,10.471-5.55,20.945-1.563,5.9-3.114,11.806c-.055.208-.139.259-.341.26a11.972,11.972,0,0,1-3.088-.216,5.458,5.458,0,0,1-3.924-3.315,31.977,31.977,0,0,1-1.394-4.65q-1.879-7.53-3.751-15.061c-.084-.336-.195-.665-.3-.995a1.092,1.092,0,0,0-.244-.411.707.707,0,0,0-1.131.055,3.109,3.109,0,0,0-.463,1.187q-.922,3.639-1.828,7.282c-.84,3.362-1.636,6.734-2.519,10.084a13.7,13.7,0,0,1-1.188,3.2,5.413,5.413,0,0,1-3.757,2.668,13.1,13.1,0,0,1-3.013.174c-.2,0-.2-.138-.233-.257q-.675-2.543-1.345-5.089-2.613-9.879-5.225-19.759-1.044-3.953-2.089-7.905c-.037-.142-.082-.254.143-.263a7.686,7.686,0,0,1,5.139,1.351,5.6,5.6,0,0,1,2.021,3.193q2.3,8.847,4.57,17.7C1646.092,664.57,1646.118,664.627,1646.154,664.726Z"/>
      <path id="Path_401" data-name="Path 401" d="M1686.857,647.706v1.518q0,9.885,0,19.77a21.581,21.581,0,0,1-.208,3.359,3.571,3.571,0,0,1-2.737,2.958,7.292,7.292,0,0,1-2.886.231c-.12-.011-.183-.044-.17-.175a1.9,1.9,0,0,0,0-.214c0-7.322.015-14.645-.013-21.967a2.775,2.775,0,0,1,1.822-2.788q1.061-.473,2.1-.988A5.846,5.846,0,0,0,1686.857,647.706Z"/>
      <path id="Path_402" data-name="Path 402" d="M1686.856,642.887a6.7,6.7,0,0,1-.519,2.753,3.589,3.589,0,0,1-1.168,1.335,9.422,9.422,0,0,1-2.254,1.206,6.384,6.384,0,0,0-1.856,1.1c-.049.041-.1.124-.177.075-.029-.018-.03-.1-.028-.146a17.062,17.062,0,0,1,.36-3.689,3.871,3.871,0,0,1,3.457-3.1,14.254,14.254,0,0,1,1.969-.169c.181,0,.233.06.219.232S1686.856,642.8,1686.856,642.887Z" fill="url(#linear-gradient)"/>
    </g>
  </g>
</svg>
