<svg xmlns="http://www.w3.org/2000/svg" xmlns:xlink="http://www.w3.org/1999/xlink" width="63" height="63" viewBox="0 0 63 63">
  <defs>
    <filter id="Ellipse_1746" x="0" y="0" width="63" height="63" filterUnits="userSpaceOnUse">
      <feOffset dy="3" input="SourceAlpha"/>
      <feGaussianBlur stdDeviation="3" result="blur"/>
      <feFlood flood-color="#1d3bff" flood-opacity="0.102"/>
      <feComposite operator="in" in2="blur"/>
      <feComposite in="SourceGraphic"/>
    </filter>
  </defs>
  <g id="Group_7608" data-name="Group 7608" transform="translate(-1531 -344)">
    <g transform="matrix(1, 0, 0, 1, 1531, 344)" filter="url(#Ellipse_1746)">
      <circle id="Ellipse_1746-2" data-name="Ellipse 1746" cx="22.5" cy="22.5" r="22.5" transform="translate(9 6)" fill="#fff"/>
    </g>
    <path id="Path_23027" data-name="Path 23027" d="M376.575,418.539a4.322,4.322,0,0,0,1.914-2.487,10.154,10.154,0,0,1-2.8,1.052,4.119,4.119,0,0,0-3.173-1.392,4.273,4.273,0,0,0-3.154,1.317,4.409,4.409,0,0,0-1.283,3.183,3.3,3.3,0,0,0,.139,1,11.72,11.72,0,0,1-9.1-4.689,4.6,4.6,0,0,0-.608,2.256,4.384,4.384,0,0,0,1.963,3.774,4.786,4.786,0,0,1-1.963-.573,4.555,4.555,0,0,0,.978,2.917,4.3,4.3,0,0,0,2.524,1.578,4.593,4.593,0,0,1-1.168.144,2.168,2.168,0,0,1-.792-.1,4.393,4.393,0,0,0,4.107,3.156,8.461,8.461,0,0,1-5.461,1.91,6.852,6.852,0,0,1-1.076-.048,12.452,12.452,0,0,0,13.54.029,12.343,12.343,0,0,0,4.341-4.855,13.44,13.44,0,0,0,1.4-5.978v-.573a9.411,9.411,0,0,0,2.195-2.347A9.56,9.56,0,0,1,376.575,418.539Z" transform="translate(1194.383 -51.712)" fill-rule="evenodd"/>
  </g>
</svg>
