<svg xmlns="http://www.w3.org/2000/svg" width="43.699" height="43.699" viewBox="0 0 43.699 43.699">
  <g id="Group_1501" data-name="Group 1501" transform="translate(-227.08 -227.08)">
    <g id="Group_1499" data-name="Group 1499" transform="translate(227.08 227.08)">
      <path id="Path_527" data-name="Path 527" d="M248.93,270.779a21.8,21.8,0,0,1-11-2.97l-10.173,2.774,3.327-9.05a21.871,21.871,0,1,1,17.849,9.245ZM238.324,265l.481.3a19.255,19.255,0,1,0-5.226-4.76l.43.567-2.072,5.636Z" transform="translate(-227.08 -227.08)" fill="#0bfac8"/>
    </g>
    <g id="Group_1500" data-name="Group 1500" transform="translate(238.28 237.531)">
      <path id="Path_528" data-name="Path 528" d="M370.073,357.719a1.828,1.828,0,0,1,1.484.142,3.343,3.343,0,0,1,.689.594l3.306,3.307a1.823,1.823,0,0,1,.543,1.28,1.946,1.946,0,0,1-.327,1.111,4.007,4.007,0,0,1-.46.523c-.533.536-1.071,1.066-1.6,1.6.151.325.346.626.517.94s.367.62.561.923a15.8,15.8,0,0,0,2.42,3.018,15.571,15.571,0,0,0,2.8,2.2c.6.391,1.226.736,1.855,1.075q.893-.9,1.789-1.789a1.966,1.966,0,0,1,.783-.5,1.825,1.825,0,0,1,1.414.066,3.023,3.023,0,0,1,.853.7q1.634,1.636,3.27,3.271a1.889,1.889,0,0,1,.544,1.279v.085a2.2,2.2,0,0,1-.214.807,5.045,5.045,0,0,1-1.008,1.14,2.209,2.209,0,0,1-.507.435,5.941,5.941,0,0,1-1.736.889,5.776,5.776,0,0,1-.9.22,3.29,3.29,0,0,1-1.012.043,8.749,8.749,0,0,1-1.269-.135c-.373-.047-.733-.161-1.1-.236-.363-.114-.736-.2-1.089-.346-.457-.134-.886-.344-1.327-.519-.395-.187-.785-.383-1.174-.581-.537-.31-1.082-.607-1.591-.962-.634-.394-1.217-.862-1.815-1.307-.657-.531-1.3-1.084-1.9-1.671-.57-.518-1.086-1.09-1.623-1.64a24.6,24.6,0,0,1-4.036-5.431,10.946,10.946,0,0,1-1.1-3.291,8.755,8.755,0,0,1-.072-2.479,6.038,6.038,0,0,1,1.144-3.09,1.355,1.355,0,0,1,.171-.267l.831-.833A2.058,2.058,0,0,1,370.073,357.719Z" transform="translate(-366.983 -357.621)" fill="#0bfac8"/>
    </g>
  </g>
</svg>
