<svg xmlns="http://www.w3.org/2000/svg" xmlns:xlink="http://www.w3.org/1999/xlink" width="63" height="63" viewBox="0 0 63 63">
  <defs>
    <filter id="Ellipse_1747" x="0" y="0" width="63" height="63" filterUnits="userSpaceOnUse">
      <feOffset dy="3" input="SourceAlpha"/>
      <feGaussianBlur stdDeviation="3" result="blur"/>
      <feFlood flood-color="#1d3bff" flood-opacity="0.102"/>
      <feComposite operator="in" in2="blur"/>
      <feComposite in="SourceGraphic"/>
    </filter>
  </defs>
  <g id="Group_7611" data-name="Group 7611" transform="translate(-1531 -515)">
    <g transform="matrix(1, 0, 0, 1, 1531, 515)" filter="url(#Ellipse_1747)">
      <circle id="Ellipse_1747-2" data-name="Ellipse 1747" cx="22.5" cy="22.5" r="22.5" transform="translate(9 6)" fill="#fff"/>
    </g>
    <path id="Forma_1" data-name="Forma 1" d="M952.209,4827.936H952.2a11.038,11.038,0,0,0-8.94,17.518l-1.376,4.1,4.246-1.357a11.043,11.043,0,1,0,6.076-20.265Zm6.427,15.6a3.117,3.117,0,0,1-2.168,1.559c-.577.123-1.331.221-3.868-.831a13.835,13.835,0,0,1-5.5-4.857,6.308,6.308,0,0,1-1.312-3.332,3.525,3.525,0,0,1,1.129-2.687,1.605,1.605,0,0,1,1.13-.4c.137,0,.26.007.37.013.324.014.487.033.7.545.266.642.915,2.227.993,2.39a.659.659,0,0,1,.047.6,1.914,1.914,0,0,1-.358.507c-.163.188-.318.331-.481.533-.149.175-.318.362-.13.687a9.783,9.783,0,0,0,1.792,2.228,8.1,8.1,0,0,0,2.59,1.6.7.7,0,0,0,.778-.123,13.2,13.2,0,0,0,.863-1.143.616.616,0,0,1,.792-.24c.3.1,1.876.883,2.2,1.045s.539.24.617.377A2.754,2.754,0,0,1,958.636,4843.533Z" transform="translate(609.839 -4295.936)"/>
  </g>
</svg>
