<svg xmlns="http://www.w3.org/2000/svg" width="358" height="188.5" viewBox="0 0 358 188.5">
  <g id="Group_7554" data-name="Group 7554" transform="translate(7546.11 -3728.557)">
    <text id="THE" transform="translate(-7433.11 3806.057)" fill="#fff" font-size="80" font-family="Montserrat-Light, Montserrat" font-weight="300"><tspan x="-81.84" y="0">THE</tspan></text>
    <text id="BUNDLE" transform="translate(-7367.11 3897.057)" fill="#fff" font-size="80" font-family="Montserrat-Bold, Montserrat" font-weight="700"><tspan x="-178.48" y="0">BUNDLE</tspan></text>
    <path id="Subtraction_1" data-name="Subtraction 1" d="M21.478,97a65.608,65.608,0,0,1-7.726-.426,15.692,15.692,0,0,1-4.9-1.411,16.256,16.256,0,0,1-4.109-2.789A15.694,15.694,0,0,1,0,83.989H5.517a16.2,16.2,0,0,0,5.127,9.525,14.53,14.53,0,0,0,7.141,3.03c1.688.211,3.461.34,5.419.394,4.823-.122,9.671-.608,14.359-1.077,12.346-1.234,25.228-2.392,38.292-3.444a10.066,10.066,0,0,0,1.909-.806,16.336,16.336,0,0,0,8.012-9.527h4.74a15.8,15.8,0,0,1-2,3.693A16.128,16.128,0,0,1,76.66,92.415c-13.058,1.049-26.045,2.217-38.6,3.47l-.331.033C32.4,96.45,26.9,97,21.478,97Zm-.436-17.714a1.971,1.971,0,0,1-1.767-1.112,2.662,2.662,0,0,1,.141-2.55c6.356-10.37,12.57-20.585,18.467-30.36C31.3,35.244,25.562,26.247,20.354,17.76a2.8,2.8,0,0,1-.194-2.481,1.9,1.9,0,0,1,1.722-1.26H21.9c5.233.07,7.851.11,13.339.2a2.158,2.158,0,0,1,1.717,1.041c3.133,4.938,6.515,10.17,10.34,15.994,3.471-5.963,6.564-11.107,9.457-15.726a1.8,1.8,0,0,1,1.532-.855h.038c5.069.113,7.608.172,12.658.3a2.267,2.267,0,0,1,1.871,1.194,2.11,2.11,0,0,1-.065,2.183C67.307,26.493,62.158,35.036,57.179,43.3l-.545.9c4.991,7.312,11.629,16.922,18.719,26.4a2.151,2.151,0,0,1,.252,2.144,2.116,2.116,0,0,1-1.705,1.3c-5.441.575-8.226.839-13.517,1.333-.049,0-.1.005-.146.005a1.94,1.94,0,0,1-1.6-.822c-3.568-5.088-7.183-10.369-11.052-16.147-3.7,6.558-7.078,12.5-10.312,18.163A2.193,2.193,0,0,1,35.62,77.7c-5.509.555-8.347.852-14.335,1.573l-.037,0-.04,0C21.152,79.284,21.1,79.286,21.042,79.286ZM88.606,11.279H83.9A15.356,15.356,0,0,0,72.888,4.264l-.137-.013-.016,0-.067-.006c-1.255-.108-2.532-.207-3.766-.3-.939-.072-2-.154-3.023-.239-4.77-.4-9.612-.877-14.295-1.341l-.019,0C41.838,1.4,31.781.4,21.824.093c10.1.287,20.293,1.3,30.153,2.28h0c4.713.469,9.586.953,14.388,1.352,1.007.084,2.023.161,3.005.235h.007c2.468.188,5.021.382,7.517.68a17.029,17.029,0,0,1,11.708,6.636Zm-82.507,0H.509A15.285,15.285,0,0,1,6.79,3.031,20.1,20.1,0,0,1,17.834,0h.246c.624.006,1.252.024,1.858.043.3.009.637.019.966.027a18.709,18.709,0,0,0-7.383,1.681A15.77,15.77,0,0,0,6.1,11.278Z" transform="translate(-7325.734 3729.057)" fill="#fff" stroke="rgba(0,0,0,0)" stroke-miterlimit="10" stroke-width="1"/>
  </g>
</svg>
