<svg xmlns="http://www.w3.org/2000/svg" width="448" height="73" viewBox="0 0 448 73">
  <g id="Group_7632" data-name="Group 7632" transform="translate(-468 -3162)">
    <g id="Group_1119" data-name="Group 1119" transform="translate(468 3165)">
      <path id="Path_252" data-name="Path 252" d="M3607.5-269.6v10.661h-34.859v-41.926h34.079v10.661h-20.184v4.911h17.729v10.182h-17.729v5.51Z" transform="translate(-3572.637 313.911)"/>
      <path id="Path_253" data-name="Path 253" d="M3751.646-289.906h-12.278v-10.96h38.692v10.96h-12.278v30.966h-14.135Z" transform="translate(-3646.712 313.911)"/>
      <path id="Path_254" data-name="Path 254" d="M3844.312-269.481h-3.833v10.541h-14.135v-41.926h20.185a24.747,24.747,0,0,1,10.121,1.917,14.916,14.916,0,0,1,6.649,5.51,15.04,15.04,0,0,1,2.336,8.385,14.821,14.821,0,0,1-2.037,7.847,14.383,14.383,0,0,1-5.869,5.33l8.8,12.937h-15.094Zm5.63-19.2a6.287,6.287,0,0,0-4.312-1.288h-5.15v9.822h5.15a6.284,6.284,0,0,0,4.313-1.288,4.612,4.612,0,0,0,1.438-3.624A4.613,4.613,0,0,0,3849.942-288.677Z" transform="translate(-3685.354 313.911)"/>
      <path id="Path_255" data-name="Path 255" d="M3942.347-266.247h-15.932l-2.815,7.307h-14.375l18.328-41.926h13.9l18.328,41.926h-14.614Zm-3.893-10.182-4.073-10.541-4.073,10.541Z" transform="translate(-3722.177 313.911)"/>
      <g id="Group_1118" data-name="Group 1118" transform="translate(29.898)">
        <path id="Path_256" data-name="Path 256" d="M3652.722-256.192a1.5,1.5,0,0,0,1.472.843l.059-.006c4.46-.536,6.637-.767,10.93-1.2a1.665,1.665,0,0,0,1.264-.856q3.948-6.915,7.861-13.848,4.154,6.2,8.427,12.31a1.478,1.478,0,0,0,1.328.623c4.141-.386,6.195-.581,10.305-1.016a1.614,1.614,0,0,0,1.3-.988,1.64,1.64,0,0,0-.192-1.634c-4.93-6.594-9.63-13.331-14.271-20.131,4-6.633,7.989-13.281,12.318-19.706a1.616,1.616,0,0,0,.05-1.664,1.728,1.728,0,0,0-1.427-.91c-3.86-.1-5.79-.142-9.65-.228a1.365,1.365,0,0,0-1.2.651c-2.474,3.951-4.865,7.961-7.21,11.99q-3.985-6.067-7.883-12.194a1.641,1.641,0,0,0-1.31-.794c-4.064-.069-6.1-.1-10.169-.156a1.444,1.444,0,0,0-1.33.96,2.146,2.146,0,0,0,.147,1.891q6.507,10.6,13.365,20.969-7,11.6-14.08,23.147A2.018,2.018,0,0,0,3652.722-256.192Z" transform="translate(-3638.026 315.794)"/>
        <path id="Path_257" data-name="Path 257" d="M3695.143-321.047l.168.016a11.788,11.788,0,0,1,8.394,5.348h3.59a13.014,13.014,0,0,0-8.927-5.06c-2.664-.318-5.35-.476-8.027-.7-11.319-.941-22.583-2.447-33.963-2.77,11.252.345,22.393,1.821,33.588,2.751C3691.69-321.316,3693.418-321.2,3695.143-321.047Z" transform="translate(-3639.739 324.283)"/>
        <path id="Path_258" data-name="Path 258" d="M3692.522-273.143c.008,8.337.013,16.674-.028,25.011-.026,5.143-2.166,9.2-6.767,11.766a7.719,7.719,0,0,1-1.456.615q-14.609,1.175-29.193,2.625c-3.648.365-7.3.729-10.949.821-1.377-.038-2.754-.128-4.131-.3a11.06,11.06,0,0,1-5.445-2.31,12.276,12.276,0,0,1-3.909-7.261h-4.206a12.244,12.244,0,0,0,10.484,9.594c6.177.727,12.358.091,18.532-.526q14.7-1.468,29.431-2.645a12.11,12.11,0,0,0,11.248-11.318c.138-8.689.16-17.38.114-26.071Z" transform="translate(-3626.437 301.594)"/>
        <path id="Path_259" data-name="Path 259" d="M3631.4-315.741a12.075,12.075,0,0,1,5.659-7.263,14.284,14.284,0,0,1,5.629-1.281c-.718-.017-1.435-.047-2.154-.053-6.62-.064-11.695,3.244-13.4,8.6Z" transform="translate(-3626.748 324.34)"/>
      </g>
    </g>
    <text id="stuff" transform="translate(819 3220)" font-size="60" font-family="Montserrat-Light, Montserrat" font-weight="300"><tspan x="-96.09" y="0">STUFF</tspan></text>
  </g>
</svg>
