<svg xmlns="http://www.w3.org/2000/svg" width="794.238" height="83.61" viewBox="0 0 794.238 83.61">
  <g id="Group_1289" data-name="Group 1289" transform="translate(-406.88 -3546.632)">
    <path id="Path_266" data-name="Path 266" d="M-1197.1-84.561V-73.8h-26.939v11.147h24.23v10.3h-24.23v11.225h27.791v10.683h-39.867v-54.11Zm84.533,0q12.463,0,18.153,4.838t5.69,14.863q0,10.025-5.844,14.669t-17.843,4.645h-7.2v15.1h-12.076v-54.11ZM-1111.488-56q6.038,0,8.205-2.438t2.168-7.122q0-4.683-2.826-6.657t-8.786-1.974h-6.89V-56Zm76.1-10.605q0,13.005-10.3,16.8l13.7,19.353h-14.863l-12-17.263h-8.36v17.263h-12.076v-54.11h20.514q12.618,0,18,4.258T-1035.393-66.6Zm-22.991,8.438q6.193,0,8.438-2.013t2.245-6.386q0-4.374-2.322-6t-8.128-1.626h-9.057v16.024Zm74.392-26.4V-73.8h-26.939v11.147h24.23v10.3h-24.23v11.225h27.791v10.683h-39.867v-54.11Zm29.029,9.367a7.278,7.278,0,0,0-4.761,1.432,4.666,4.666,0,0,0-1.742,3.793,4.288,4.288,0,0,0,2.129,3.754q2.129,1.393,9.831,3.29t11.96,5.69q4.258,3.793,4.258,11.07a14.612,14.612,0,0,1-5.457,11.805q-5.458,4.529-14.36,4.529-12.85,0-23.146-9.522l7.2-8.825q8.747,7.664,16.179,7.664a8.493,8.493,0,0,0,5.225-1.432,4.6,4.6,0,0,0,1.9-3.871,4.511,4.511,0,0,0-2.013-3.871q-2.013-1.432-7.973-2.9-9.444-2.245-13.818-5.845t-4.374-11.3q0-7.7,5.535-11.883t13.818-4.18a33.236,33.236,0,0,1,10.838,1.858,29.023,29.023,0,0,1,9.444,5.264l-6.115,8.825Q-947.454-75.195-954.963-75.195Zm49.388,0a7.278,7.278,0,0,0-4.761,1.432,4.666,4.666,0,0,0-1.742,3.793,4.288,4.288,0,0,0,2.129,3.754q2.129,1.393,9.831,3.29t11.96,5.69q4.258,3.793,4.258,11.07a14.612,14.612,0,0,1-5.457,11.805q-5.458,4.529-14.36,4.529-12.85,0-23.146-9.522l7.2-8.825q8.747,7.664,16.179,7.664a8.493,8.493,0,0,0,5.225-1.432,4.6,4.6,0,0,0,1.9-3.871,4.511,4.511,0,0,0-2.013-3.871q-2.013-1.432-7.973-2.9-9.444-2.245-13.818-5.845t-4.374-11.3q0-7.7,5.535-11.883t13.818-4.18a33.236,33.236,0,0,1,10.838,1.858,29.023,29.023,0,0,1,9.444,5.264l-6.115,8.825Q-898.065-75.195-905.574-75.195Zm93.745-9.444h-4.1l-19.585,31.893L-855.1-84.639h-4.335l21.83,35.532v18.656h3.948V-49.107Zm30.5,54.575c16.1,0,28.178-11.689,28.178-27.481s-12.076-27.481-28.178-27.481c-16.179,0-28.178,11.767-28.178,27.481S-797.508-30.064-781.329-30.064Zm0-3.638c-13.857,0-24.23-10.141-24.23-23.843s10.373-23.843,24.23-23.843c13.779,0,24.152,10.141,24.152,23.843S-767.55-33.7-781.329-33.7Zm63.09,3.638c13.47,0,21.753-7.9,21.753-23.378v-31.2h-3.948V-53.6c0,13.547-6.425,19.895-17.727,19.895s-17.8-6.348-17.8-19.895V-84.639h-3.948v31.2C-739.915-37.96-731.709-30.064-718.239-30.064Zm82.288-.387L-649.5-49.417c8.051-2.4,12.7-8.36,12.7-16.953,0-11.457-8.206-18.269-21.83-18.269h-19.43v54.188h3.948V-48.178h15.482a38.252,38.252,0,0,0,5.264-.387l12.928,18.114Zm-38.164-21.211V-81.078h15.482c11.612,0,17.8,5.341,17.8,14.708,0,9.289-6.193,14.708-17.8,14.708Zm66.032,21.6c13.392,0,19.508-6.657,19.508-14.321,0-19.662-33.829-10.063-33.829-26.32,0-5.961,4.722-10.838,15.25-10.838a26.779,26.779,0,0,1,14.863,4.567l1.471-3.174a29.07,29.07,0,0,0-16.334-4.877c-13.315,0-19.2,6.735-19.2,14.4,0,19.972,33.829,10.218,33.829,26.475,0,5.883-4.8,10.605-15.637,10.605-7.277,0-14.166-2.942-17.882-6.812l-1.78,2.942C-623.875-33.083-616.134-30.064-608.083-30.064Zm36.848-3.948V-56.229h28.874v-3.484h-28.874V-81.078h32.28v-3.561h-36.228v54.188h37.39v-3.561Zm47.84,3.561h35.145v-3.561h-31.2V-84.639H-523.4Zm81.514-50.627v-3.561H-478.11v54.188h3.948v-23.92h28.874v-3.561h-28.874V-81.078Z" transform="translate(1643 3643.943)" fill="#fff"/>
    <path id="Subtraction_1" data-name="Subtraction 1" d="M18.292,82.61a55.876,55.876,0,0,1-6.58-.363,13.364,13.364,0,0,1-4.169-1.2,13.844,13.844,0,0,1-3.5-2.376A13.366,13.366,0,0,1,0,71.529H4.7a13.8,13.8,0,0,0,4.367,8.112,12.374,12.374,0,0,0,6.082,2.581c1.438.18,2.947.29,4.615.336,4.107-.1,8.236-.518,12.229-.917C42.506,80.589,53.478,79.6,64.6,78.707a8.573,8.573,0,0,0,1.626-.686,13.912,13.912,0,0,0,6.824-8.113H77.09a13.455,13.455,0,0,1-1.7,3.145,13.735,13.735,0,0,1-10.1,5.653c-11.121.894-22.182,1.888-32.875,2.955l-.281.028C27.6,82.141,22.906,82.61,18.292,82.61ZM17.92,67.524a1.678,1.678,0,0,1-1.5-.947,2.267,2.267,0,0,1,.12-2.172c5.413-8.832,10.7-17.531,15.727-25.856-5.61-8.533-10.493-16.2-14.929-23.423a2.388,2.388,0,0,1-.165-2.113,1.615,1.615,0,0,1,1.467-1.073h.019c4.457.06,6.686.094,11.36.174A1.838,1.838,0,0,1,31.477,13c2.668,4.206,5.549,8.661,8.806,13.621,2.956-5.078,5.591-9.459,8.054-13.393a1.532,1.532,0,0,1,1.3-.728h.032c4.317.1,6.479.146,10.78.254a1.931,1.931,0,0,1,1.594,1.016,1.8,1.8,0,0,1-.056,1.859c-4.671,6.931-9.056,14.207-13.3,21.243l-.464.769c4.25,6.227,9.9,14.411,15.942,22.487a1.832,1.832,0,0,1,.215,1.826,1.8,1.8,0,0,1-1.452,1.1c-4.634.49-7.006.714-11.511,1.135-.042,0-.083,0-.124,0a1.652,1.652,0,0,1-1.359-.7c-3.039-4.333-6.118-8.831-9.413-13.752-3.155,5.585-6.028,10.645-8.782,15.468a1.868,1.868,0,0,1-1.412.957c-4.691.472-7.109.726-12.209,1.339l-.031,0-.034,0C18.014,67.522,17.968,67.524,17.92,67.524ZM75.461,9.605h-4.01a13.078,13.078,0,0,0-9.376-5.974l-.117-.011h-.013l-.057-.005c-1.069-.092-2.156-.176-3.208-.257-.8-.062-1.705-.131-2.575-.2-4.062-.338-8.186-.747-12.174-1.142l-.016,0C35.631,1.188,27.067.339,18.586.08c8.6.244,17.282,1.107,25.68,1.942h0c4.014.4,8.164.812,12.254,1.151.858.071,1.723.137,2.56.2h.006c2.1.16,4.276.325,6.4.579A14.5,14.5,0,0,1,75.461,9.6Zm-70.267,0H.434A13.017,13.017,0,0,1,5.783,2.581,17.117,17.117,0,0,1,15.188,0h.21c.531,0,1.066.021,1.583.036L17.8.06a15.933,15.933,0,0,0-6.287,1.432A13.43,13.43,0,0,0,5.195,9.6Z" transform="translate(439.146 3547.132)" fill="#fff" stroke="rgba(0,0,0,0)" stroke-miterlimit="10" stroke-width="1"/>
  </g>
</svg>
