<svg xmlns="http://www.w3.org/2000/svg" width="488.999" height="69.336" viewBox="0 0 488.999 69.336">
  <g id="Group_1121" data-name="Group 1121" transform="translate(-3572.637 324.34)">
    <g id="Group_1119" data-name="Group 1119" transform="translate(3572.637 -324.34)">
      <path id="Path_252" data-name="Path 252" d="M3607.5-269.6v10.661h-34.859v-41.926h34.079v10.661h-20.184v4.911h17.729v10.182h-17.729v5.51Z" transform="translate(-3572.637 313.911)" fill="#f2f2f2"/>
      <path id="Path_253" data-name="Path 253" d="M3751.646-289.906h-12.278v-10.96h38.692v10.96h-12.278v30.966h-14.135Z" transform="translate(-3646.712 313.911)" fill="#f2f2f2"/>
      <path id="Path_254" data-name="Path 254" d="M3844.312-269.481h-3.833v10.541h-14.135v-41.926h20.185a24.747,24.747,0,0,1,10.121,1.917,14.916,14.916,0,0,1,6.649,5.51,15.04,15.04,0,0,1,2.336,8.385,14.821,14.821,0,0,1-2.037,7.847,14.383,14.383,0,0,1-5.869,5.33l8.8,12.937h-15.094Zm5.63-19.2a6.287,6.287,0,0,0-4.312-1.288h-5.15v9.822h5.15a6.284,6.284,0,0,0,4.313-1.288,4.612,4.612,0,0,0,1.438-3.624A4.613,4.613,0,0,0,3849.942-288.677Z" transform="translate(-3685.354 313.911)" fill="#f2f2f2"/>
      <path id="Path_255" data-name="Path 255" d="M3942.347-266.247h-15.932l-2.815,7.307h-14.375l18.328-41.926h13.9l18.328,41.926h-14.614Zm-3.893-10.182-4.073-10.541-4.073,10.541Z" transform="translate(-3722.177 313.911)" fill="#f2f2f2"/>
      <g id="Group_1118" data-name="Group 1118" transform="translate(29.898)">
        <path id="Path_256" data-name="Path 256" d="M3652.722-256.192a1.5,1.5,0,0,0,1.472.843l.059-.006c4.46-.536,6.637-.767,10.93-1.2a1.665,1.665,0,0,0,1.264-.856q3.948-6.915,7.861-13.848,4.154,6.2,8.427,12.31a1.478,1.478,0,0,0,1.328.623c4.141-.386,6.195-.581,10.305-1.016a1.614,1.614,0,0,0,1.3-.988,1.64,1.64,0,0,0-.192-1.634c-4.93-6.594-9.63-13.331-14.271-20.131,4-6.633,7.989-13.281,12.318-19.706a1.616,1.616,0,0,0,.05-1.664,1.728,1.728,0,0,0-1.427-.91c-3.86-.1-5.79-.142-9.65-.228a1.365,1.365,0,0,0-1.2.651c-2.474,3.951-4.865,7.961-7.21,11.99q-3.985-6.067-7.883-12.194a1.641,1.641,0,0,0-1.31-.794c-4.064-.069-6.1-.1-10.169-.156a1.444,1.444,0,0,0-1.33.96,2.146,2.146,0,0,0,.147,1.891q6.507,10.6,13.365,20.969-7,11.6-14.08,23.147A2.018,2.018,0,0,0,3652.722-256.192Z" transform="translate(-3638.026 315.794)" fill="#f2f2f2"/>
        <path id="Path_257" data-name="Path 257" d="M3695.143-321.047l.168.016a11.788,11.788,0,0,1,8.394,5.348h3.59a13.014,13.014,0,0,0-8.927-5.06c-2.664-.318-5.35-.476-8.027-.7-11.319-.941-22.583-2.447-33.963-2.77,11.252.345,22.393,1.821,33.588,2.751C3691.69-321.316,3693.418-321.2,3695.143-321.047Z" transform="translate(-3639.739 324.283)" fill="#f2f2f2"/>
        <path id="Path_258" data-name="Path 258" d="M3692.522-273.143c.008,8.337.013,16.674-.028,25.011-.026,5.143-2.166,9.2-6.767,11.766a7.719,7.719,0,0,1-1.456.615q-14.609,1.175-29.193,2.625c-3.648.365-7.3.729-10.949.821-1.377-.038-2.754-.128-4.131-.3a11.06,11.06,0,0,1-5.445-2.31,12.276,12.276,0,0,1-3.909-7.261h-4.206a12.244,12.244,0,0,0,10.484,9.594c6.177.727,12.358.091,18.532-.526q14.7-1.468,29.431-2.645a12.11,12.11,0,0,0,11.248-11.318c.138-8.689.16-17.38.114-26.071Z" transform="translate(-3626.437 301.594)" fill="#f2f2f2"/>
        <path id="Path_259" data-name="Path 259" d="M3631.4-315.741a12.075,12.075,0,0,1,5.659-7.263,14.284,14.284,0,0,1,5.629-1.281c-.718-.017-1.435-.047-2.154-.053-6.62-.064-11.695,3.244-13.4,8.6Z" transform="translate(-3626.748 324.34)" fill="#f2f2f2"/>
      </g>
    </g>
    <g id="Group_1120" data-name="Group 1120" transform="translate(3821.343 -314.378)">
      <path id="Path_260" data-name="Path 260" d="M4027.216-262.071a18.312,18.312,0,0,1-7.039-4.444l1.492-2.465a17.565,17.565,0,0,0,6.455,4.119,23.139,23.139,0,0,0,8.531,1.59q6.487,0,9.8-2.466a7.649,7.649,0,0,0,3.309-6.422,6.715,6.715,0,0,0-1.751-4.866,11.606,11.606,0,0,0-4.347-2.79,59.772,59.772,0,0,0-7.007-2.011,68.247,68.247,0,0,1-8.012-2.4,12.8,12.8,0,0,1-5.125-3.6,9.6,9.6,0,0,1-2.108-6.52,11.081,11.081,0,0,1,1.752-6.065,11.892,11.892,0,0,1,5.352-4.38,21.913,21.913,0,0,1,8.985-1.622,25.353,25.353,0,0,1,7.4,1.1,21.815,21.815,0,0,1,6.293,2.984l-1.233,2.66a21.059,21.059,0,0,0-6-2.855,22.609,22.609,0,0,0-6.456-.973q-6.293,0-9.536,2.53a7.932,7.932,0,0,0-3.244,6.552,6.709,6.709,0,0,0,1.752,4.865,11.57,11.57,0,0,0,4.347,2.79,65.824,65.824,0,0,0,7.072,2.076,66.419,66.419,0,0,1,7.979,2.4,13.124,13.124,0,0,1,5.093,3.535,9.266,9.266,0,0,1,2.108,6.391,10.781,10.781,0,0,1-1.784,6.033,12.141,12.141,0,0,1-5.482,4.347,22.6,22.6,0,0,1-9.083,1.622A26.434,26.434,0,0,1,4027.216-262.071Z" transform="translate(-4020.177 306.413)" fill="#f2f2f2"/>
      <path id="Path_261" data-name="Path 261" d="M4099.558-305.829h3.309v45.412h-3.309Z" transform="translate(-4055.445 306.154)" fill="#f2f2f2"/>
      <path id="Path_262" data-name="Path 262" d="M4176.944-260.417l-.065-38.86-19.008,32.826h-1.622l-19.008-32.7v38.731H4134v-45.412h2.789l20.306,35.1,20.306-35.1h2.725l.065,45.412Z" transform="translate(-4070.745 306.154)" fill="#f2f2f2"/>
      <path id="Path_263" data-name="Path 263" d="M4275.312-301.774q4.866,4.055,4.866,11.256,0,7.136-4.866,11.19t-13.429,4.055h-12.975v14.857H4245.6v-45.412h16.284Q4270.446-305.829,4275.312-301.774Zm-2.335,20.338q3.827-3.178,3.828-9.082t-3.828-9.115q-3.829-3.211-11.094-3.211h-12.975v24.588h12.975Q4269.148-278.258,4272.977-281.436Z" transform="translate(-4120.328 306.154)" fill="#f2f2f2"/>
      <path id="Path_264" data-name="Path 264" d="M4327.9-305.829h3.309V-263.4h26.145v2.984H4327.9Z" transform="translate(-4156.894 306.154)" fill="#f2f2f2"/>
      <path id="Path_265" data-name="Path 265" d="M4427.528-263.4v2.984h-31.334v-45.412h30.362v2.984H4399.5v17.906h24.2v2.92h-24.2V-263.4Z" transform="translate(-4187.235 306.154)" fill="#f2f2f2"/>
    </g>
  </g>
</svg>
