<svg xmlns="http://www.w3.org/2000/svg" width="548" height="185.595" viewBox="0 0 548 185.595">
  <g id="Group_8351" data-name="Group 8351" transform="translate(-1039 -271.405)">
    <text id="capabilities" transform="translate(1587 437)" fill="#fff" font-size="80" font-family="Montserrat-Light, Montserrat" font-weight="300"><tspan x="-547.2" y="0">CAPABILITIES</tspan></text>
    <g id="Group_1119" data-name="Group 1119" transform="translate(1283 271.405)">
      <path id="Path_252" data-name="Path 252" d="M3617.179-260.917v13.623h-44.542v-53.572h43.546v13.622h-25.791v6.276h22.654v13.011h-22.654v7.04Z" transform="translate(-3572.637 317.534)" fill="#fff"/>
      <path id="Path_253" data-name="Path 253" d="M3755.057-286.861h-15.689v-14h49.439v14h-15.688v39.567h-18.062Z" transform="translate(-3620.976 317.534)" fill="#fff"/>
      <path id="Path_254" data-name="Path 254" d="M3849.3-260.763h-4.9v13.469h-18.062v-53.572h25.791a31.628,31.628,0,0,1,12.933,2.449,19.068,19.068,0,0,1,8.5,7.041,19.218,19.218,0,0,1,2.983,10.714,18.932,18.932,0,0,1-2.6,10.026,18.367,18.367,0,0,1-7.5,6.811l11.248,16.531h-19.285Zm7.194-24.528q-1.835-1.646-5.51-1.645h-6.581v12.551h6.581q3.675,0,5.51-1.645a5.89,5.89,0,0,0,1.837-4.63A5.891,5.891,0,0,0,3856.5-285.292Z" transform="translate(-3646.193 317.534)" fill="#fff"/>
      <path id="Path_255" data-name="Path 255" d="M3951.548-256.631H3931.19l-3.6,9.337h-18.368l23.42-53.572H3950.4l23.419,53.572h-18.674Zm-4.974-13.011-5.205-13.469-5.2,13.469Z" transform="translate(-3670.22 317.534)" fill="#fff"/>
      <g id="Group_1118" data-name="Group 1118" transform="translate(38.202)">
        <path id="Path_256" data-name="Path 256" d="M3652.778-242.606a1.922,1.922,0,0,0,1.881,1.077l.076-.007c5.7-.685,8.481-.98,13.966-1.532a2.127,2.127,0,0,0,1.615-1.094q5.045-8.835,10.046-17.695,5.308,7.927,10.768,15.73a1.89,1.89,0,0,0,1.7.8c5.29-.494,7.915-.742,13.167-1.3a2.06,2.06,0,0,0,1.66-1.262,2.1,2.1,0,0,0-.245-2.088c-6.3-8.426-12.3-17.034-18.235-25.723,5.109-8.476,10.208-16.97,15.739-25.18a2.06,2.06,0,0,0,.063-2.127,2.207,2.207,0,0,0-1.822-1.162c-4.931-.124-7.4-.182-12.331-.291a1.743,1.743,0,0,0-1.531.832c-3.161,5.048-6.217,10.173-9.212,15.32q-5.093-7.752-10.073-15.581a2.1,2.1,0,0,0-1.674-1.014c-5.193-.089-7.79-.129-12.993-.2a1.844,1.844,0,0,0-1.7,1.227,2.736,2.736,0,0,0,.188,2.416q8.314,13.548,17.079,26.794-8.943,14.821-17.992,29.576A2.583,2.583,0,0,0,3652.778-242.606Z" transform="translate(-3634 318.763)" fill="#fff"/>
        <path id="Path_257" data-name="Path 257" d="M3705.911-320.168c.071.006.142.014.215.02a15.064,15.064,0,0,1,10.726,6.833h4.587a16.628,16.628,0,0,0-11.407-6.465c-3.4-.406-6.835-.608-10.257-.892-14.463-1.2-28.855-3.126-43.4-3.539,14.377.44,28.614,2.327,42.918,3.516C3701.5-320.512,3703.708-320.359,3705.911-320.168Z" transform="translate(-3635.118 324.302)" fill="#fff"/>
        <path id="Path_258" data-name="Path 258" d="M3710.879-273.143c.009,10.653.017,21.305-.036,31.958-.034,6.571-2.769,11.753-8.647,15.034a9.888,9.888,0,0,1-1.86.785q-18.668,1.5-37.3,3.354c-4.661.466-9.325.931-13.99,1.05-1.76-.048-3.519-.164-5.279-.384a14.13,14.13,0,0,1-6.958-2.952,15.69,15.69,0,0,1-4.995-9.278h-5.375a15.646,15.646,0,0,0,13.4,12.26c7.894.929,15.792.116,23.68-.672q18.781-1.876,37.606-3.38c8.792-.706,14.27-8.076,14.372-14.461.175-11.1.2-22.208.145-33.314Z" transform="translate(-3626.436 309.497)" fill="#fff"/>
        <path id="Path_259" data-name="Path 259" d="M3632.582-313.352a15.428,15.428,0,0,1,7.232-9.281,18.244,18.244,0,0,1,7.193-1.637c-.918-.022-1.835-.06-2.752-.068-8.459-.082-14.943,4.145-17.117,10.986Z" transform="translate(-3626.64 324.34)" fill="#fff"/>
      </g>
    </g>
  </g>
</svg>
