<svg xmlns="http://www.w3.org/2000/svg" width="821.079" height="82.608" viewBox="0 0 821.079 82.608">
  <g id="Group_1441" data-name="Group 1441" transform="translate(-849 -1599.81)">
    <g id="Group_1119" data-name="Group 1119" transform="translate(1387 1599.81)">
      <path id="Path_252" data-name="Path 252" d="M3614.169-263.617v12.7h-41.531v-49.951h40.6v12.7h-24.047v5.852h21.123v12.131h-21.123v6.565Z" transform="translate(-3572.637 316.408)" fill="#fff"/>
      <path id="Path_253" data-name="Path 253" d="M3754-287.808h-14.629v-13.058h46.1v13.058h-14.628v36.893H3754Z" transform="translate(-3628.978 316.408)" fill="#fff"/>
      <path id="Path_254" data-name="Path 254" d="M3847.752-263.474h-4.565v12.559h-16.841v-49.951h24.048a29.49,29.49,0,0,1,12.059,2.284,17.779,17.779,0,0,1,7.921,6.565,17.92,17.92,0,0,1,2.782,9.99,17.652,17.652,0,0,1-2.426,9.349,17.125,17.125,0,0,1-6.992,6.351l10.488,15.413h-17.981Zm6.708-22.871a7.489,7.489,0,0,0-5.138-1.534h-6.136v11.7h6.136a7.487,7.487,0,0,0,5.138-1.534,5.493,5.493,0,0,0,1.712-4.318A5.494,5.494,0,0,0,3854.46-286.344Z" transform="translate(-3658.368 316.408)" fill="#fff"/>
      <path id="Path_255" data-name="Path 255" d="M3948.688-259.62h-18.982l-3.354,8.706h-17.126l21.837-49.951h16.554l21.836,49.951h-17.412Zm-4.638-12.132L3939.2-284.31l-4.852,12.558Z" transform="translate(-3686.374 316.408)" fill="#fff"/>
      <g id="Group_1118" data-name="Group 1118" transform="translate(35.62)">
        <path id="Path_256" data-name="Path 256" d="M3652.76-246.83a1.792,1.792,0,0,0,1.754,1l.07-.007c5.313-.639,7.908-.914,13.022-1.429a1.983,1.983,0,0,0,1.505-1.02q4.7-8.238,9.367-16.5,4.95,7.391,10.04,14.667a1.762,1.762,0,0,0,1.583.742c4.933-.46,7.38-.692,12.277-1.21a1.921,1.921,0,0,0,1.548-1.177,1.955,1.955,0,0,0-.228-1.947c-5.874-7.856-11.473-15.882-17-23.984,4.764-7.9,9.518-15.823,14.675-23.478a1.921,1.921,0,0,0,.059-1.983,2.059,2.059,0,0,0-1.7-1.084c-4.6-.115-6.9-.169-11.5-.271a1.626,1.626,0,0,0-1.428.776c-2.947,4.707-5.8,9.485-8.589,14.285q-4.749-7.228-9.393-14.528a1.956,1.956,0,0,0-1.561-.945c-4.842-.083-7.264-.121-12.115-.185a1.72,1.72,0,0,0-1.584,1.144,2.552,2.552,0,0,0,.175,2.253q7.752,12.633,15.924,24.983-8.339,13.819-16.776,27.577A2.408,2.408,0,0,0,3652.76-246.83Z" transform="translate(-3635.252 317.84)" fill="#fff"/>
        <path id="Path_257" data-name="Path 257" d="M3702.563-320.441l.2.019a14.046,14.046,0,0,1,10,6.371h4.277a15.5,15.5,0,0,0-10.636-6.028c-3.174-.379-6.374-.567-9.564-.832-13.485-1.121-26.905-2.915-40.463-3.3,13.406.411,26.68,2.17,40.017,3.278C3698.452-320.762,3700.51-320.619,3702.563-320.441Z" transform="translate(-3636.555 324.296)" fill="#fff"/>
        <path id="Path_258" data-name="Path 258" d="M3705.172-273.143c.009,9.933.016,19.865-.033,29.8-.032,6.127-2.582,10.958-8.063,14.018a9.228,9.228,0,0,1-1.734.732q-17.407,1.4-34.782,3.128c-4.346.434-8.695.868-13.044.979-1.641-.045-3.281-.153-4.922-.358a13.175,13.175,0,0,1-6.488-2.752,14.629,14.629,0,0,1-4.657-8.651h-5.012a14.589,14.589,0,0,0,12.491,11.431c7.361.867,14.724.108,22.08-.626q17.512-1.749,35.065-3.152c8.2-.658,13.306-7.531,13.4-13.484.164-10.352.191-20.707.135-31.062Z" transform="translate(-3626.437 307.04)" fill="#fff"/>
        <path id="Path_259" data-name="Path 259" d="M3632.214-314.095a14.385,14.385,0,0,1,6.743-8.654,17.012,17.012,0,0,1,6.707-1.527c-.856-.021-1.711-.056-2.566-.064-7.888-.076-13.934,3.865-15.96,10.244Z" transform="translate(-3626.674 324.34)" fill="#fff"/>
      </g>
    </g>
    <path id="Path_355" data-name="Path 355" d="M-152.045-1.342V15.537h-3.572V-1.342L-175.368-33.49h3.922l17.72,28.856,17.72-28.856h3.712ZM-104.7,15.887a26.19,26.19,0,0,1-13.027-3.257,23.989,23.989,0,0,1-9.14-8.93,24.593,24.593,0,0,1-3.327-12.677,24.593,24.593,0,0,1,3.327-12.677,23.989,23.989,0,0,1,9.14-8.93A26.191,26.191,0,0,1-104.7-33.84a26.416,26.416,0,0,1,13.027,3.222,23.734,23.734,0,0,1,9.14,8.895A24.726,24.726,0,0,1-79.205-8.976,24.726,24.726,0,0,1-82.532,3.771a23.734,23.734,0,0,1-9.14,8.895A26.416,26.416,0,0,1-104.7,15.887Zm0-3.292a22.29,22.29,0,0,0,11.136-2.8,20.637,20.637,0,0,0,7.844-7.739A21.538,21.538,0,0,0-82.847-8.976a21.538,21.538,0,0,0-2.872-11.031,20.638,20.638,0,0,0-7.844-7.739,22.29,22.29,0,0,0-11.136-2.8,22.485,22.485,0,0,0-11.171,2.8,20.567,20.567,0,0,0-7.879,7.739,21.539,21.539,0,0,0-2.872,11.031A21.539,21.539,0,0,0-123.75,2.055a20.567,20.567,0,0,0,7.879,7.739A22.485,22.485,0,0,0-104.7,12.6Zm57.081,3.292q-9.315,0-14.463-5.393T-67.228-5.264V-33.49h3.572V-5.4q0,9.035,4.132,13.517T-47.548,12.6q7.774,0,11.907-4.482T-31.509-5.4V-33.49h3.572V-5.264q0,10.366-5.183,15.759T-47.618,15.887ZM6.732-33.49h19.4a28.39,28.39,0,0,1,13.552,3.152,23.033,23.033,0,0,1,9.21,8.72A24.367,24.367,0,0,1,52.187-8.976,24.367,24.367,0,0,1,48.9,3.666a23.033,23.033,0,0,1-9.21,8.72,28.39,28.39,0,0,1-13.552,3.152H6.732ZM25.853,12.315a25.583,25.583,0,0,0,11.977-2.7A19.286,19.286,0,0,0,45.814,2.09a21.659,21.659,0,0,0,2.8-11.066,21.659,21.659,0,0,0-2.8-11.066,19.286,19.286,0,0,0-7.984-7.529,25.583,25.583,0,0,0-11.977-2.7H10.3V12.315Zm72.56,0v3.222H64.584V-33.49H97.362v3.222H68.156v19.331H94.281v3.152H68.156v20.1Zm25.914,3.572a28.553,28.553,0,0,1-10.261-1.856,19.787,19.787,0,0,1-7.6-4.8l1.611-2.661a18.974,18.974,0,0,0,6.969,4.447,25.01,25.01,0,0,0,9.21,1.716q7,0,10.576-2.661A8.261,8.261,0,0,0,138.4,3.14a7.248,7.248,0,0,0-1.891-5.253,12.506,12.506,0,0,0-4.693-3.012A64.471,64.471,0,0,0,124.257-7.3a73.762,73.762,0,0,1-8.65-2.591,13.809,13.809,0,0,1-5.533-3.887,10.374,10.374,0,0,1-2.276-7.039,11.968,11.968,0,0,1,1.891-6.549,12.84,12.84,0,0,1,5.778-4.728,23.632,23.632,0,0,1,9.7-1.751,27.342,27.342,0,0,1,7.984,1.191,23.486,23.486,0,0,1,6.794,3.222l-1.331,2.872a22.692,22.692,0,0,0-6.479-3.082,24.391,24.391,0,0,0-6.969-1.051q-6.794,0-10.3,2.732a8.566,8.566,0,0,0-3.5,7.074,7.248,7.248,0,0,0,1.891,5.253,12.506,12.506,0,0,0,4.693,3.012,71.236,71.236,0,0,0,7.634,2.241A71.554,71.554,0,0,1,134.2-7.786a14.169,14.169,0,0,1,5.5,3.817,10,10,0,0,1,2.276,6.9,11.641,11.641,0,0,1-1.926,6.514,13.1,13.1,0,0,1-5.918,4.693A24.4,24.4,0,0,1,124.327,15.887Zm63.6-3.572v3.222H154.093V-33.49h32.778v3.222H157.665v19.331H183.79v3.152H157.665v20.1Zm47.066,3.222L223.292-.852a35.77,35.77,0,0,1-4.763.35H204.521V15.537h-3.572V-33.49h17.58q9.245,0,14.5,4.377t5.253,12.152A15.789,15.789,0,0,1,235.3-7.19a15.77,15.77,0,0,1-8.51,5.568L239.05,15.537ZM218.529-3.653q7.844,0,11.977-3.467t4.132-9.84q0-6.374-4.132-9.84t-11.977-3.467H204.521V-3.653Zm72-29.836L268.677,15.537H265.1L243.253-33.49h3.922L267,10.915l19.821-44.4Zm41.743,45.805v3.222H298.443V-33.49h32.778v3.222H302.015v19.331h26.124v3.152H302.015v20.1Z" transform="translate(1024.368 1650.09)" fill="#fff"/>
  </g>
</svg>
