<svg xmlns="http://www.w3.org/2000/svg" xmlns:xlink="http://www.w3.org/1999/xlink" width="42.339" height="44.24" viewBox="0 0 42.339 44.24">
  <defs>
    <clipPath id="clip-path">
      <rect id="Rectangle_256" data-name="Rectangle 256" width="42.339" height="44.24"/>
    </clipPath>
  </defs>
  <g id="בוקינג" transform="translate(-16973 12515)">
    <g id="Group_1883" data-name="Group 1883" transform="translate(16973 -12515)" clip-path="url(#clip-path)">
      <path id="Path_606" data-name="Path 606" d="M3.378,44.24A3.387,3.387,0,0,1,0,40.861V5.28A3.387,3.387,0,0,1,3.378,1.9H7.517V.855a.854.854,0,1,1,1.709,0V1.9H20.315V.855a.854.854,0,1,1,1.708,0V1.9H33.112V.855a.854.854,0,0,1,1.709,0V1.9H38.96a3.388,3.388,0,0,1,3.379,3.38v35.58A3.387,3.387,0,0,1,38.96,44.24Zm-1.67-3.378a1.675,1.675,0,0,0,1.669,1.669H39.011l.053-.013h.018a1.64,1.64,0,0,0,1.551-1.656V14.474H1.708ZM3.378,3.61A1.675,1.675,0,0,0,1.707,5.28v7.485H40.633V5.28a1.674,1.674,0,0,0-1.671-1.67H34.821V5.491a.854.854,0,0,1-1.709,0V3.61H22.023V5.491a.854.854,0,1,1-1.708,0V3.61H9.224V5.491a.854.854,0,1,1-1.708,0V3.61Z" transform="translate(0 0)"/>
    </g>
    <path id="Path_23065" data-name="Path 23065" d="M418.058,8481.725l-5-5a1,1,0,0,1,1.414-1.414l3.59,3.59,8.356-8.357a1,1,0,0,1,1.414,1.414Z" transform="translate(16574.426 -20963.055)" fill="#0be6b8"/>
  </g>
</svg>
