<svg xmlns="http://www.w3.org/2000/svg" width="30.533" height="44.239" viewBox="0 0 30.533 44.239">
  <g id="Group_8150" data-name="Group 8150" transform="translate(12575.266 9577.995)">
    <g id="תפריט_מסעדה" data-name="תפריט מסעדה" transform="translate(-29096 2717)">
      <path id="Path_636" data-name="Path 636" d="M28.392,23.332H.558A.557.557,0,0,0,0,23.89V62.677a.558.558,0,0,0,.558.558H28.392a2.143,2.143,0,0,0,2.141-2.141V25.473a2.143,2.143,0,0,0-2.141-2.141m1.026,37.762a1.027,1.027,0,0,1-1.026,1.026H1.115V24.447H28.392a1.027,1.027,0,0,1,1.026,1.026Z" transform="translate(16520.734 -12313.991)"/>
      <path id="Path_637" data-name="Path 637" d="M100.206,3.571a.558.558,0,0,0,.558-.558V.558a.558.558,0,0,0-.8-.5l-3.05,1.492L93.443.046a.558.558,0,0,0-.779.512V3.013a.558.558,0,0,0,1.115,0V1.407L96.7,2.675a.557.557,0,0,0,.467-.011l2.478-1.212V3.013a.558.558,0,0,0,.558.558" transform="translate(16445.295 -12294.996)"/>
      <path id="Path_638" data-name="Path 638" d="M87.111,98.264a4.875,4.875,0,0,0-4.423-2.843.558.558,0,0,0,0,1.115A3.757,3.757,0,0,1,86.1,98.727a.558.558,0,1,0,1.014-.463" transform="translate(16453.871 -12372.68)" fill="#0be6b8"/>
      <path id="Path_639" data-name="Path 639" d="M51.928,145.708H32.318a.558.558,0,0,0,0,1.115H51.928a.558.558,0,0,0,0-1.115" transform="translate(16494.879 -12413.619)"/>
      <path id="Path_640" data-name="Path 640" d="M61.98,161.965H48.318a.558.558,0,1,0,0,1.115H61.98a.558.558,0,0,0,0-1.115" transform="translate(16481.852 -12426.854)"/>
      <path id="Path_641" data-name="Path 641" d="M13.318,36.465a.558.558,0,0,0-.558.558V70.946a.558.558,0,1,0,1.115,0V37.023a.558.558,0,0,0-.558-.558" transform="translate(16510.346 -12324.683)"/>
      <path id="Path_642" data-name="Path 642" d="M40.485,85.393H56.1a.558.558,0,1,0,0-1.115H55a6.7,6.7,0,0,0-6.109-6.109V77.023a.558.558,0,0,0-1.115,0v1.146a6.7,6.7,0,0,0-6.109,6.109H40.485a.558.558,0,0,0,0,1.115m7.845-6.134a5.584,5.584,0,0,1,5.549,5.019h-11.1a5.584,5.584,0,0,1,5.549-5.019" transform="translate(16488.229 -12357.248)" fill="#0be6b8"/>
    </g>
  </g>
</svg>
