<svg xmlns="http://www.w3.org/2000/svg" width="43.52" height="44.24" viewBox="0 0 43.52 44.24">
  <g id="אירועים" transform="translate(-17204.24 12515)">
    <path id="Path_23066" data-name="Path 23066" d="M38.871,139.371a1.543,1.543,0,0,1-1.254-.639l-2.744-3.8a1.539,1.539,0,0,1,.135-1.971,2.8,2.8,0,0,0-3.661-4.213.763.763,0,0,1-1.065-.172l-3.16-4.375a1.544,1.544,0,0,1,.348-2.156l28.3-20.441a1.546,1.546,0,0,1,2.156.348l2.744,3.8a1.539,1.539,0,0,1-.135,1.971,2.8,2.8,0,0,0,3.229,4.47,1.539,1.539,0,0,1,1.913.491l2.744,3.8a1.546,1.546,0,0,1-.348,2.156l-28.3,20.441a1.536,1.536,0,0,1-.9.292m-5.892-12.679a4.385,4.385,0,0,1,.7.056,4.328,4.328,0,0,1,2.43,7.273.019.019,0,0,0,0,.019l2.744,3.8a.019.019,0,0,0,.026,0l28.3-20.441a.019.019,0,0,0,0-.026l-2.744-3.8a.02.02,0,0,0-.016-.009,4.328,4.328,0,0,1-4.988-6.9.02.02,0,0,0,0-.019l-2.744-3.8a.019.019,0,0,0-.026,0l-28.3,20.441a.019.019,0,0,0,0,.026l2.753,3.811a4.279,4.279,0,0,1,1.867-.428" transform="translate(17179.049 -12610.131)"/>
    <path id="Path_23067" data-name="Path 23067" d="M433.621,230.482l-.846-1.171a.594.594,0,0,1,.134-.829l.273-.2a.594.594,0,0,1,.83.134l.846,1.171a.594.594,0,0,1-.134.829l-.273.2a.594.594,0,0,1-.829-.134m-2.312-3.2-.846-1.171a.594.594,0,0,1,.134-.829l.273-.2a.594.594,0,0,1,.829.134l.846,1.171a.594.594,0,0,1-.134.829l-.273.2a.594.594,0,0,1-.83-.134m-2.312-3.2-.846-1.171a.594.594,0,0,1,.134-.829l.273-.2a.594.594,0,0,1,.829.134l.846,1.171a.594.594,0,0,1-.134.829l-.273.2a.594.594,0,0,1-.829-.134m-2.312-3.2-.846-1.171a.594.594,0,0,1,.134-.829l.273-.2a.594.594,0,0,1,.829.134l.846,1.171a.594.594,0,0,1-.134.829l-.273.2a.594.594,0,0,1-.829-.134" transform="translate(16804.492 -12720.232)" fill="#0be6b8"/>
    <path id="Path_23068" data-name="Path 23068" d="M4.037,497.435a.763.763,0,0,1-1.043.274l-2.229-1.3a1.546,1.546,0,0,1-.554-2.113l.24-.41a.763.763,0,0,1,1.317.77l-.24.41a.019.019,0,0,0,.007.026l2.229,1.3a.763.763,0,0,1,.274,1.043Z" transform="translate(17204.24 -12978.391)"/>
    <path id="Path_23069" data-name="Path 23069" d="M87.1,23.074h0a.763.763,0,0,1-.274-1.043L99.261.764A1.546,1.546,0,0,1,101.373.21l4.046,2.365a1.543,1.543,0,0,1,.672,1.861,2.829,2.829,0,0,0,.216,2.368.762.762,0,0,1-.144.942l0,0a.76.76,0,0,1-1.169-.166,4.306,4.306,0,0,1-.334-3.669.018.018,0,0,0-.008-.022L100.6,1.527a.019.019,0,0,0-.026.007L88.147,22.8a.763.763,0,0,1-1.043.274" transform="translate(17122.807 -12515)"/>
    <path id="Path_23070" data-name="Path 23070" d="M276.065,142.23l-1.4-.818a.594.594,0,0,1-.213-.813l.17-.291a.594.594,0,0,1,.813-.213l1.4.818a.594.594,0,0,1,.213.813l-.17.291a.594.594,0,0,1-.813.213" transform="translate(16946.611 -12646.47)" fill="#0be6b8"/>
    <path id="Path_23071" data-name="Path 23071" d="M334.269,176.251h0a.594.594,0,0,1-.213-.813l.17-.291a.594.594,0,0,1,1.026.6l-.17.291a.594.594,0,0,1-.813.213" transform="translate(16890.645 -12679.183)" fill="#0be6b8"/>
  </g>
</svg>
