<svg xmlns="http://www.w3.org/2000/svg" width="104.368" height="44.24" viewBox="0 0 104.368 44.24">
  <g id="סושיאל_מדיה" data-name="סושיאל מדיה" transform="translate(-16482 11838.001)">
    <path id="Path_23036" data-name="Path 23036" d="M881.613,518.66h0s-3.795-1.384-3.795,1.434v2.129h3.7l-.328,3.518h-3.374v11.985h-4.534V525.741h-2.222v-3.518h2.222v-3.7s-.047-2.857,3.678-3.679a10.953,10.953,0,0,1,5.158.254Z" transform="translate(15657.86 -12338.639)" fill="#0bfac8" fill-rule="evenodd"/>
    <g id="Group_8103" data-name="Group 8103" transform="translate(16557.105 -11830)">
      <g id="instagram-logo" transform="translate(0 0)">
        <path id="Path_12" data-name="Path 12" d="M15.4,0H5.868A5.875,5.875,0,0,0,0,5.868V15.4a5.875,5.875,0,0,0,5.868,5.868H15.4A5.875,5.875,0,0,0,21.266,15.4V5.868A5.875,5.875,0,0,0,15.4,0Zm3.982,15.4A3.986,3.986,0,0,1,15.4,19.378H5.868A3.986,3.986,0,0,1,1.887,15.4V5.868A3.986,3.986,0,0,1,5.868,1.887H15.4a3.986,3.986,0,0,1,3.982,3.982V15.4Z" transform="translate(0 0)"/>
        <path id="Path_13" data-name="Path 13" d="M46.448,40.97a5.479,5.479,0,1,0,5.48,5.48A5.486,5.486,0,0,0,46.448,40.97Zm0,9.072a3.593,3.593,0,1,1,3.593-3.592A3.6,3.6,0,0,1,46.448,50.042Z" transform="translate(-35.815 -35.817)"/>
        <path id="Path_14" data-name="Path 14" d="M120.3,28.251a1.383,1.383,0,1,0,.979.405A1.389,1.389,0,0,0,120.3,28.251Z" transform="translate(-103.962 -24.697)" fill="#0bfac8"/>
      </g>
    </g>
    <g id="youtube-logo" transform="translate(16490.492 -11831)">
      <g id="Group_6" data-name="Group 6" transform="translate(0)">
        <path id="Path_4" data-name="Path 4" d="M63.21,219.148a2.446,2.446,0,0,0-2.084-1.9q-2.4-.261-7.229-.26t-7.216.26a2.363,2.363,0,0,0-1.342.612,2.473,2.473,0,0,0-.756,1.289,22.572,22.572,0,0,0-.339,4.559,22.105,22.105,0,0,0,.339,4.559,2.381,2.381,0,0,0,.749,1.289,2.309,2.309,0,0,0,1.335.6,69.633,69.633,0,0,0,7.229.274,69.62,69.62,0,0,0,7.229-.274,2.279,2.279,0,0,0,1.329-.6,2.472,2.472,0,0,0,.755-1.289,22.569,22.569,0,0,0,.339-4.559A22.124,22.124,0,0,0,63.21,219.148Zm-13.455,1.316H48.362v7.411h-1.3v-7.411H45.691V219.24h4.064v1.224Zm3.517,7.411H52.113v-.7a1.907,1.907,0,0,1-1.329.795.7.7,0,0,1-.755-.482,3.223,3.223,0,0,1-.1-.951v-5.093h1.159v4.741a3.594,3.594,0,0,0,.013.456q.039.274.274.273.352,0,.742-.547v-4.923h1.159v6.434Zm4.429-1.928a4.812,4.812,0,0,1-.117,1.3.9.9,0,0,1-.925.716,1.617,1.617,0,0,1-1.212-.716v.625H54.288V219.24h1.159v2.826a1.57,1.57,0,0,1,1.212-.7.9.9,0,0,1,.925.729,4.653,4.653,0,0,1,.117,1.289Zm4.4-1.068H59.772v1.133q0,.9.6.9a.5.5,0,0,0,.521-.469,6.494,6.494,0,0,0,.026-.794H62.1v.169a5.768,5.768,0,0,1-.026.756,1.612,1.612,0,0,1-1.681,1.393,1.673,1.673,0,0,1-1.407-.664,2.448,2.448,0,0,1-.378-1.511v-2.253a2.515,2.515,0,0,1,.364-1.511,1.781,1.781,0,0,1,2.775,0,2.583,2.583,0,0,1,.352,1.511v1.342Z" transform="translate(-44.245 -207.087)"/>
        <path id="Path_5" data-name="Path 5" d="M290.373,336.043a.837.837,0,0,0-.586.287v3.92a.836.836,0,0,0,.586.286q.508,0,.508-.873v-2.748Q290.881,336.043,290.373,336.043Z" transform="translate(-278.585 -320.713)"/>
        <path id="Path_6" data-name="Path 6" d="M385.167,336.043q-.586,0-.586.885v.6h1.172v-.6Q385.753,336.043,385.167,336.043Z" transform="translate(-369.054 -320.713)"/>
        <path id="Path_7" data-name="Path 7" d="M114.138,5.2v3.53h1.3V5.2L117.017,0h-1.329L114.8,3.426,113.878,0H112.5q.365,1.094.847,2.436A22.074,22.074,0,0,1,114.138,5.2Z" transform="translate(-109.383)"/>
        <path id="Path_8" data-name="Path 8" d="M213.58,53.777a1.6,1.6,0,0,0,1.381-.664,2.566,2.566,0,0,0,.365-1.537V49.3a2.542,2.542,0,0,0-.365-1.524,1.753,1.753,0,0,0-2.748,0,2.541,2.541,0,0,0-.365,1.524v2.279a2.6,2.6,0,0,0,.365,1.537A1.61,1.61,0,0,0,213.58,53.777Zm-.56-4.715q0-.9.56-.9t.56.9V51.8q0,.912-.56.912t-.56-.912Z" transform="translate(-204.202 -44.959)"/>
        <path id="Path_9" data-name="Path 9" d="M310.071,55.413a1.874,1.874,0,0,0,1.342-.808v.716H312.6v-6.5h-1.185v4.962q-.391.56-.743.56-.235,0-.273-.286a3.405,3.405,0,0,1-.013-.456v-4.78H309.2v5.132a3.348,3.348,0,0,0,.1.977A.724.724,0,0,0,310.071,55.413Z" transform="translate(-297.111 -46.595)"/>
      </g>
    </g>
    <path id="Path_23218" data-name="Path 23218" d="M35.29,9.829c-.024-.04-.048-.08-.072-.112,0-.008,0-.016-.008-.016A19.216,19.216,0,0,0,33.4,7a19.713,19.713,0,0,0-1.454-1.6c-.256-.256-.519-.5-.791-.743h-.008a21.2,21.2,0,0,0-1.7-1.335A19.634,19.634,0,0,0,27.73,2.27h-.008c-.4-.216-.8-.416-1.215-.607s-.839-.36-1.271-.519A18.8,18.8,0,0,0,9.829,2.27c-.3.168-.6.336-.887.511-.575.36-1.135.751-1.67,1.159-.535.424-1.039.863-1.526,1.327A18.827,18.827,0,0,0,3.732,7.544v.008c-.36.479-.7.983-1.015,1.494a18.793,18.793,0,0,0,0,19.467c.32.519.655,1.015,1.015,1.494v.008a18.827,18.827,0,0,0,2.014,2.278c.487.464.991.9,1.526,1.327.535.408,1.095.8,1.67,1.159.288.176.583.344.887.511a18.8,18.8,0,0,0,15.407,1.127c.432-.16.855-.336,1.271-.519s.815-.392,1.215-.607h.008A19.043,19.043,0,0,0,31.1,32.932a14.893,14.893,0,0,0,1.207-1.151,14.673,14.673,0,0,1-.719-1.574,14.783,14.783,0,0,1-1.215,1.239h-.008a17.174,17.174,0,1,1,3.644-20.6c.008.008.008.008.008.016a14.553,14.553,0,0,1,.719,1.566A16.055,16.055,0,0,1,35.953,11.2v-.008c-.208-.463-.432-.919-.663-1.359" transform="translate(16482 -11838.001)"/>
    <path id="Path_23219" data-name="Path 23219" d="M85.61,11.188V11.2a16.055,16.055,0,0,1,1.215,1.231,14.555,14.555,0,0,1,.719-1.566c0-.008,0-.008.008-.016a17.192,17.192,0,1,1,3.644,20.6h-.008a14.785,14.785,0,0,1-1.215-1.239,14.674,14.674,0,0,1-.719,1.574,14.894,14.894,0,0,0,1.207,1.151,19.043,19.043,0,0,0,3.372,2.357h.008c.4.216.8.416,1.215.607s.839.36,1.271.519a18.8,18.8,0,0,0,15.407-1.127c.3-.168.6-.336.887-.511.575-.36,1.135-.751,1.67-1.159.535-.424,1.039-.863,1.526-1.327a18.828,18.828,0,0,0,2.014-2.278v-.008c.36-.479.7-.975,1.015-1.494a18.793,18.793,0,0,0,0-19.467c-.32-.511-.655-1.015-1.015-1.494V7.544a18.828,18.828,0,0,0-2.014-2.278c-.487-.463-.991-.9-1.526-1.327-.535-.408-1.095-.8-1.67-1.159-.288-.176-.583-.344-.887-.511A18.8,18.8,0,0,0,96.326,1.143c-.432.16-.855.336-1.271.519s-.815.392-1.215.607h-.008a19.634,19.634,0,0,0-1.71,1.055,21.2,21.2,0,0,0-1.7,1.335h-.008c-.272.248-.535.487-.791.743A19.713,19.713,0,0,0,88.167,7a19.216,19.216,0,0,0-1.814,2.7c-.008,0-.008.008-.008.016-.024.032-.048.072-.072.112-.232.44-.456.9-.663,1.359" transform="translate(16464.805 -11838.001)"/>
    <path id="Path_23220" data-name="Path 23220" d="M77.09,18.189a19.229,19.229,0,0,0-1.878-2.821c-.352-.44-.727-.855-1.119-1.263-.144-.152-.3-.3-.448-.448-.448-.44-.927-.855-1.422-1.255a20.308,20.308,0,0,0-2.1-1.438c-.2-.112-.392-.224-.591-.336h-.008c-.4-.216-.8-.416-1.215-.607s-.839-.36-1.271-.519A18.8,18.8,0,0,0,51.629,10.63a19.043,19.043,0,0,0-3.372,2.357l-.008.008a14.756,14.756,0,0,0-1.2,1.143A18.811,18.811,0,0,0,45.532,15.9v.008c-.36.479-.7.975-1.015,1.494a18.8,18.8,0,0,0-1.239,17.046,2.829,2.829,0,0,0,.128.272c.216.511.463,1,.727,1.486a.008.008,0,0,1,.008.008c.12.224.248.44.376.655.32.519.655,1.015,1.015,1.494v.008a18.827,18.827,0,0,0,2.014,2.278c.487.463.991.9,1.526,1.327.535.408,1.095.8,1.67,1.159.288.176.583.344.887.511a18.8,18.8,0,0,0,15.407,1.127c.432-.16.855-.336,1.271-.519s.815-.392,1.215-.607h.008c.2-.112.392-.224.591-.336a20.309,20.309,0,0,0,2.1-1.438c.5-.4.975-.815,1.422-1.255.152-.144.3-.3.448-.448.392-.408.767-.823,1.119-1.263A19.23,19.23,0,0,0,77.09,36.09a18.783,18.783,0,0,0,0-17.9M60.58,44.321a17.185,17.185,0,0,1-15.231-9.246c-.008-.008-.008-.008-.008-.016a14.673,14.673,0,0,1-.719-1.574A17.121,17.121,0,0,1,47.77,15.7a16.055,16.055,0,0,1,1.215-1.231v-.008a17.18,17.18,0,1,1,11.6,29.856" transform="translate(16473.604 -11839.681)"/>
  </g>
</svg>
