<svg xmlns="http://www.w3.org/2000/svg" width="46.301" height="44.241" viewBox="0 0 46.301 44.241">
  <g id="Group_8341" data-name="Group 8341" transform="translate(11597 11420)">
    <g id="Group_8339" data-name="Group 8339">
      <path id="Path_23078" data-name="Path 23078" d="M45.57,84.983a.731.731,0,0,0-.731.731v4.474H1.462V69.565a.244.244,0,0,1,.244-.244H6.177a.731.731,0,1,0,0-1.462H1.706A1.708,1.708,0,0,0,0,69.565V95.211a1.708,1.708,0,0,0,1.706,1.706H44.6A1.708,1.708,0,0,0,46.3,95.211v-9.5a.731.731,0,0,0-.731-.731M44.6,95.455H1.706a.244.244,0,0,1-.244-.244V91.649H44.839v3.562a.244.244,0,0,1-.244.244" transform="translate(-11597 -11478.856)" fill="#161615"/>
      <path id="Path_23079" data-name="Path 23079" d="M426.355,69.321h4.471a.244.244,0,0,1,.244.244V90.3a.731.731,0,1,0,1.462,0V69.565a1.708,1.708,0,0,0-1.706-1.706h-4.471a.731.731,0,1,0,0,1.462" transform="translate(-11983.23 -11478.856)" fill="#161615"/>
      <path id="Path_23080" data-name="Path 23080" d="M180.2,427.734h-2.432v-2.783a.731.731,0,0,0-1.462,0v2.783h-6.47v-2.783a.731.731,0,1,0-1.462,0v2.783h-2.432a.731.731,0,0,0,0,1.462H180.2a.731.731,0,0,0,0-1.462" transform="translate(-11746.915 -11804.956)" fill="#161615"/>
      <path id="Path_23082" data-name="Path 23082" d="M236.056,364.1a1.011,1.011,0,1,0,1.011,1.011,1.011,1.011,0,0,0-1.011-1.011" transform="translate(-11810.29 -11750.402)" fill="#161615"/>
    </g>
    <path id="Path_23432" data-name="Path 23432" d="M15.49,36.371,7.536,31.749A.605.605,0,1,0,6.928,32.8l7.953,4.621a.605.605,0,1,0,.608-1.047" transform="translate(-11591.79 -11438.11)" fill="#0bfac8"/>
    <path id="Path_23433" data-name="Path 23433" d="M15.347,43.363,7.394,38.741a.605.605,0,1,0-.608,1.047l7.953,4.622a.606.606,0,0,0,.608-1.047" transform="translate(-11591.708 -11442.109)" fill="#0bfac8"/>
    <path id="Path_23434" data-name="Path 23434" d="M14.457,28.882,28.117,21.6a.606.606,0,0,0,.321-.534V8.06a.652.652,0,0,0-.376-.56L14.467.075a.606.606,0,0,0-.575,0L.324,7.3A.642.642,0,0,0,0,7.84V19.786a.606.606,0,0,0,.282.512l13.567,8.562a.622.622,0,0,0,.324.093.65.65,0,0,0,.284-.071m.321-1.543V15.875l4.429-2.418v3.521a.606.606,0,0,0,.9.53l3.307-1.822a.606.606,0,0,0,.313-.53V10.99l3.5-1.908V20.707ZM9.425,3.824l13.088,7.167V14.8l-2.1,1.155V12.436c0-.012,0-.024,0-.035a.514.514,0,0,0-.008-.057.59.59,0,0,0-.054-.173c0-.008,0-.017-.007-.024l-.006-.007a.608.608,0,0,0-.135-.161c-.013-.011-.027-.021-.042-.03a.6.6,0,0,0-.06-.044L7.3,4.957Zm4.749-2.53,12.392,6.77L23.118,9.941,10.7,3.143ZM6.019,5.639l12.527,6.8-4.364,2.382L1.866,7.853ZM1.211,19.452V8.873l12.356,6.99V27.249Z" transform="translate(-11588 -11420.001)"/>
  </g>
</svg>
