<svg xmlns="http://www.w3.org/2000/svg" width="65.34" height="44.24" viewBox="0 0 65.34 44.24">
  <g id="Group_8352" data-name="Group 8352" transform="translate(-1555 -4054.999)">
    <path id="Path_23436" data-name="Path 23436" d="M722.956,277.805a3.631,3.631,0,1,1,3.631-3.631,3.636,3.636,0,0,1-3.631,3.631m0-5.429a1.8,1.8,0,1,0,1.8,1.8,1.8,1.8,0,0,0-1.8-1.8" transform="translate(880.869 3801.453)"/>
    <path id="Path_23437" data-name="Path 23437" d="M181.524,410.329a.918.918,0,0,1-.917-.917v-5.756a.917.917,0,1,1,1.833,0V408.5h2.8a.917.917,0,0,1,0,1.833Z" transform="translate(1385.74 3677.563)" fill="#0bfac8"/>
    <path id="Path_23438" data-name="Path 23438" d="M12.264,44.239a12.257,12.257,0,0,1-8.648-20.95l.185-.184V5.694A5.712,5.712,0,0,1,9.517,0H55.553a5.7,5.7,0,0,1,5.695,5.695v6.661h1.6a2.491,2.491,0,0,1,2.489,2.489V26.412A2.491,2.491,0,0,1,62.851,28.9h-1.6v6.661a5.7,5.7,0,0,1-5.695,5.695H20.272L20.1,41.4a12.272,12.272,0,0,1-7.833,2.838m0-22.695a10.431,10.431,0,1,0,10.431,10.43,10.442,10.442,0,0,0-10.431-10.43m0-1.833a12.238,12.238,0,0,1,10.388,18.75l-.6.962h33.5a3.866,3.866,0,0,0,3.862-3.862V28.9H42.658a2.491,2.491,0,0,1-2.489-2.489V14.843a2.491,2.491,0,0,1,2.489-2.489H59.415V5.694a3.866,3.866,0,0,0-3.862-3.862H9.517A3.877,3.877,0,0,0,5.634,5.694V21.617l.922-.487a12.094,12.094,0,0,1,5.708-1.419M42,27.039l20.85.028a.656.656,0,0,0,.656-.655v-12.2l-21.476-.029Z" transform="translate(1555 4055)"/>
    <rect id="Rectangle_3386" data-name="Rectangle 3386" width="65.34" height="44.24" transform="translate(1555 4054.999)" fill="none"/>
  </g>
</svg>
