<svg xmlns="http://www.w3.org/2000/svg" xmlns:xlink="http://www.w3.org/1999/xlink" width="52.218" height="44.24" viewBox="0 0 52.218 44.24">
  <defs>
    <clipPath id="clip-path">
      <rect id="Rectangle_3280" data-name="Rectangle 3280" width="52.218" height="44.24"/>
    </clipPath>
  </defs>
  <g id="צא_ט" data-name="צא&apos;ט" transform="translate(-17198 12295)">
    <g id="Group_7663" data-name="Group 7663" transform="translate(17198 -12295)" clip-path="url(#clip-path)">
      <path id="Path_23072" data-name="Path 23072" d="M7.7,36.142a1.343,1.343,0,0,1-1.347-1.335V28.241H4.3a4.3,4.3,0,0,1-4.3-4.3V4.3A4.3,4.3,0,0,1,4.3,0H37.561a4.3,4.3,0,0,1,4.3,4.3V23.944a4.287,4.287,0,0,1-4.266,4.286H15.138L8.707,35.676a1.352,1.352,0,0,1-1.011.466M4.3,1.392a2.907,2.907,0,0,0-2.9,2.9V23.933a2.907,2.907,0,0,0,2.9,2.9H7.029a.7.7,0,0,1,.7.7v7.11l6.547-7.564a.7.7,0,0,1,.531-.237H37.561a2.907,2.907,0,0,0,2.9-2.9V4.3a2.907,2.907,0,0,0-2.9-2.9Z" transform="translate(0 0.001)"/>
      <path id="Path_23073" data-name="Path 23073" d="M182.96,111.724a1.311,1.311,0,0,1-1-.463l-6.446-7.426H155.729a.7.7,0,0,1,0-1.4h20.107a.688.688,0,0,1,.528.233l6.551,7.568v-7.11a.7.7,0,0,1,.7-.7h2.743a2.907,2.907,0,0,0,2.9-2.9V79.867a2.907,2.907,0,0,0-2.9-2.9.7.7,0,1,1,0-1.393,4.3,4.3,0,0,1,4.3,4.3V99.515a4.3,4.3,0,0,1-4.3,4.3h-2.052v6.565a1.316,1.316,0,0,1-.873,1.257,1.344,1.344,0,0,1-.474.09" transform="translate(-138.439 -67.484)"/>
      <path id="Path_23074" data-name="Path 23074" d="M188.418,130.916a1.733,1.733,0,1,1,1.734-1.733,1.736,1.736,0,0,1-1.734,1.733" transform="translate(-167.643 -114.813)" fill="#0be6b8"/>
      <path id="Path_23075" data-name="Path 23075" d="M238.358,130.916a1.733,1.733,0,1,1,1.734-1.733,1.735,1.735,0,0,1-1.734,1.733" transform="translate(-207.866 -114.813)" fill="#0be6b8"/>
      <path id="Path_23076" data-name="Path 23076" d="M138.476,130.916a1.733,1.733,0,1,1,1.735-1.733,1.736,1.736,0,0,1-1.735,1.733" transform="translate(-127.42 -114.813)" fill="#0be6b8"/>
    </g>
  </g>
</svg>
